<?xml version="1.0" encoding="UTF-8"?>
<svg xmlns="http://www.w3.org/2000/svg" id="Layer_1" data-name="Layer 1" viewBox="0 0 396.84 80.46">
  <defs>
    <style>.cls-1{fill:#010101;}.cls-2{fill:#2d6331;}</style>
  </defs>
  <title>logo-d</title>
  <path class="cls-1" d="M40.18,58.62h0s0,0-.08,0l-.1,0h0l-.16.05a.2.2,0,0,1-.1,0l-.07,0-.08,0a.3.3,0,0,1-.1-.07.34.34,0,0,1-.06-.06l-.09-.12,0-.06a.85.85,0,0,1-.08-.17,1.77,1.77,0,0,1,0-.94,2.09,2.09,0,0,0,0-.56,6.84,6.84,0,0,1,.08-.91c.11-.91.11-1.82.29-2.72A3.36,3.36,0,0,0,39.48,52a17.36,17.36,0,0,0-.31-1.87,8.18,8.18,0,0,1-.38-2.18,2.84,2.84,0,0,0,.46.26l.11,0a.63.63,0,0,0,.21.05.19.19,0,0,0,.11,0l0,0a.11.11,0,0,0,0-.12c0-.08-.11-.18-.17-.3-.19-.36-.42-.83-.47-1a3.17,3.17,0,0,1-1-1.66,4,4,0,0,0-.44-.56s-.06-.09-.05-.09h0a2.37,2.37,0,0,1,.62.2l.44.2c.08,0,.09-.66-.41-1.26a3.7,3.7,0,0,0-.45-.42c-.25-.21-.52-.4-.72-.55a1.78,1.78,0,0,1-.3-.26s0-.06,0-.08a.33.33,0,0,1,.11-.14l0,0,.07,0h0l.1,0,0,0,.09.07.09.06,0,0,.11,0h0a.28.28,0,0,0,.15,0c.18-.31-.07-.38-.24-.47a.35.35,0,0,1-.14-.13,1.53,1.53,0,0,1-.45-.54l-.12-.2a.76.76,0,0,0-.2-.2c-.22-.14-.48-.15-.71-.39a1.56,1.56,0,0,1-.38-.85c.26-.2.57-.09.76-.36s0-.27-.24-.41-.3-.21-.43-.31a1,1,0,0,1-.21-.25A2,2,0,0,1,35.2,38s0-.17-.07-.32a2.35,2.35,0,0,0-.08-.29h0s-.14-.06-.13-.12.3,0,.55-.15a2,2,0,0,0,.8-.61s0,0-.1,0l-.12,0a1.77,1.77,0,0,1-.32-.09,1.18,1.18,0,0,1-.51-.38c-.27-.35-.07-.56-.57-1.66a.94.94,0,0,1-.06-.18V34l0,0,0,0h.08l.08,0,0,0,.1,0,.06,0a.41.41,0,0,1,.11.07l0,0a.71.71,0,0,1,.14.1,1.05,1.05,0,0,0,.26.13l.06,0,.23,0h0a2,2,0,0,0,.42-.06c.14,0,.28-.07.43-.09s-.25-.21-.38-.36c-.51-.56-.12-.73-.19-1a2.37,2.37,0,0,0-.21-.57c-.09-.21-.19-.41-.24-.57H36a1.13,1.13,0,0,0,.3,0,5.06,5.06,0,0,0,1.16-.55c0-.19-.41-.18-.75-.57a2.69,2.69,0,0,1-.76-1.42c-.07-.6.22-1.2-.09-1.74-.17-.3-1.06-.86-.89-1.22a1,1,0,0,0,.23.13c.18.08.24,0,.44.1l.15.06h0a.38.38,0,0,0,.1,0H36a.08.08,0,0,0,0-.05h0a.41.41,0,0,0,0-.12v0a1.89,1.89,0,0,0-.06-.21h0c0-.09-.08-.2-.13-.32l0-.09c-.06-.14-.13-.28-.22-.46s-.17-.25-.2-.32A6.19,6.19,0,0,1,35,24a1.55,1.55,0,0,1-.08-.23s0,0,0-.06l-.06-.23v0a.6.6,0,0,1,0-.19s0,0,0,0a.13.13,0,0,1,.09-.07h0l.1,0,.06,0a1.23,1.23,0,0,1,.25.17l.19.1h0l.13,0h0a.52.52,0,0,0,.28-.07l0,0,0-.06s0,0,0,0a.07.07,0,0,0,0-.07,1,1,0,0,1-.21-.33,2.47,2.47,0,0,1-.13-.67,1.43,1.43,0,0,0-.06-.26.36.36,0,0,1-.06-.15c0-.06,0-.12,0-.13h0l0,0h0l0,.06v0h0l.06.1c.12-.18,0-.41,0-.62,0-.43,0-.85,0-1.28,0-.26-.18-.7,0-.93s.68,0,.82-.31l.12-.25,0,0,.08-.1h0l.06,0h0a.09.09,0,0,1,.07,0s0,0,0,0a0,0,0,0,0,0,0h0l0-.09v0a1.13,1.13,0,0,0,.06-.21c.23-.86.3-.41.37-.71,0-.12,0-.24,0-.36a2.42,2.42,0,0,0-.28-1,2.39,2.39,0,0,0-1-1,1.77,1.77,0,0,0-.69-.19,1.65,1.65,0,0,0,.07-.21,2.39,2.39,0,0,1,.15-.37c.06-.1.09-.17.12-.23l0-.08h0l0,0s0,0,0,0l0,0,0-.05s0,0,0,0a.29.29,0,0,0,0-.09s0,0,0-.06a.32.32,0,0,0-.06-.17.86.86,0,0,1-.12-.27,1.18,1.18,0,0,1,0-.37.23.23,0,0,0,0-.14,3.67,3.67,0,0,0-.85-1l-.16-.1-.06,0-.17-.07-.1,0-.17,0h-.12a1,1,0,0,0-.24,0,1.28,1.28,0,0,0-.5.2l-.31.23-.9.61h0l-.18.13-.05,0-.1.07,0,0-.07,0h0l0,0h-.18l-.25,0-.1,0-.33-.08-.27-.07-.15,0-.33-.07-.08,0-.38,0h-.42a.7.7,0,0,0-.24.06l-.12.07-.21.12a1,1,0,0,1-.26.13,3,3,0,0,1-.4.11l-.29.06-.17,0-.18,0h0a1.11,1.11,0,0,1-.24.05h0L27,13H27a3.47,3.47,0,0,1-.43,0l-.71-.05-.56-.06-.27,0-.38,0h-.21a2.49,2.49,0,0,0-.41,0l-.43,0h-.29l-.15,0a1.28,1.28,0,0,0-.26-.07h-.32a.27.27,0,0,1-.16,0,1,1,0,0,1-.21,0l-.22,0h-.38a.34.34,0,0,0-.17,0c-.12.11,0,.61,0,.64s-.67,1.52-.15,2c.06.07.43.47.38.59a.31.31,0,0,1-.1.08l-.06,0-.15.07-.11,0L21,16.2h-.39a2.08,2.08,0,0,1-.63-.14,1.6,1.6,0,0,1-.36-.2,1.32,1.32,0,0,1-.22-.71,1.88,1.88,0,0,1,.22-.64,1.45,1.45,0,0,0,.18-.5h-.36a.76.76,0,0,0-.21,0h0l-.2,0-.07,0-.23.11a1.55,1.55,0,0,0-.68,1,2.26,2.26,0,0,0,.15,1.35,1.83,1.83,0,0,0,1.36,1.14l.22,0h0l.26,0h.1l.19,0h.12l.18,0,.12,0,.16,0,.1,0,.14,0,.08,0,.11,0,0,0,.07,0c.1.08,0,0,0,.14a1.8,1.8,0,0,0-.53.15.29.29,0,0,0-.14.15A2.55,2.55,0,0,0,20.77,19a.53.53,0,0,0,.12.22,2.16,2.16,0,0,0,.47.38s-.09-.3-.14-.49a.3.3,0,0,1,0-.16c.14.11.34.18.63.36l.32.21a.26.26,0,0,1,.08-.11l0,0a.17.17,0,0,1,.11-.06h0l.06,0c.45.21.55.8.82,1.15s-.14.61-.4.85a2,2,0,0,0-.25.25,3,3,0,0,1-.24.26.72.72,0,0,0-.19.32.28.28,0,0,0-.13,0l-.05,0-.1.06-.08,0h-.53a.26.26,0,0,0-.11.1,2.7,2.7,0,0,1-.58-.67l-.11-.07h0l0,0h0l-.08-.07-.3-.22c-.34-.28-.81-.69-1.43-1.26-.16-.14-.3-.3-.45-.44-.7-.6-1.33-1.29-2-1.9-.27-.23-.45-.53-.71-.76s-.27-.11-.39-.2-.13-.22-.28-.31a20.77,20.77,0,0,0-2.15-1,7.32,7.32,0,0,0-2.39-.61,4.35,4.35,0,0,0-.51,0l-.28,0-.48.08-.5.08-.36.07a5.49,5.49,0,0,1-.7.05h-.8a1.54,1.54,0,0,1-.3,0l-.1,0-.26-.06-.33-.07h0l-.26,0H5.19L5,15l-.09,0a.94.94,0,0,0-.26.14c-.21.18-.44.32-.5.62a.79.79,0,0,0-.22,0l-.14,0-.15.06L3.51,16l-.13.09-.1.09-.12.12a.76.76,0,0,1-.08.11.71.71,0,0,0-.08.15.6.6,0,0,0-.06.11,1.34,1.34,0,0,0-.07.18s0,.08,0,.12l0,.2a.44.44,0,0,0,0,.1,1.6,1.6,0,0,0,0,.31,1.7,1.7,0,0,0,0,.21v0a2.17,2.17,0,0,0,0,.25v0q0,.12.06.21h0c0,.06.05.09.07.09H3l.06-.05.2-.21c.19-.22.43-.51.52-.51a1.61,1.61,0,0,0-.11,1.69h0l0,.09a.08.08,0,0,0,.07,0s0,0,.05-.06A.86.86,0,0,1,4.08,19c.17-.11.51-.35.62-.41l.56-.3a.37.37,0,0,1,.15-.06h0s0,0,0,0a0,0,0,0,1,0,0s0,.08,0,.14a1.35,1.35,0,0,0-.51.95v0H5a2.37,2.37,0,0,0,.06.7.74.74,0,0,0,0,.14,1.33,1.33,0,0,0,0,.19,1.83,1.83,0,0,0,.08.25v0h.11l.11,0,0,0,.08,0,0,0,.06,0,.24-.19.12-.09,0,0,.11-.09,0,0,.07-.07a1.78,1.78,0,0,0,.25-.26l.12.07s0,.17,0,.38,0,.14,0,.21l0,.12.06.16,0,.09A1,1,0,0,0,7,21H7a1.29,1.29,0,0,0,.15.17h0l0,0,.13-.11.07,0,.15-.1.06,0a.52.52,0,0,0,.11-.1h0a3,3,0,0,0,.23-.32l0,0a3.39,3.39,0,0,0,.2-.38h0c.08-.17.15-.28.19-.36l.25-.43a.24.24,0,0,1,.2-.12h5a.23.23,0,0,1,.21.13.23.23,0,0,1,0,.25l-.32.41-.91,1.15a3.1,3.1,0,0,0,.26.76l.86-.65.41-.31a.23.23,0,0,1,.14,0,.18.18,0,0,1,.1,0,.23.23,0,0,1,.13.21V26.4a9.22,9.22,0,0,0,.69,1.69c.2.37.25.48.05.88a3.1,3.1,0,0,0-.34,1.46,0,0,0,0,0,0,0h0a.43.43,0,0,0,.13,0h0a.81.81,0,0,0,.18-.1h0l.15-.1.09-.05a2.08,2.08,0,0,1-.31,1.15c-.06.15-.16.28-.22.43a.93.93,0,0,0-.1.26,1.66,1.66,0,0,1,.22,0c.32.1.19.48.17.71s-.25.28-.29.45.1.33,0,.49-.45.36-.65.47c-.39.21-.69.53-1.09.72-1.09.53-2.09,1.19-3.18,1.7-.63.29-1.32.6-1.93,1l.34-9L14,33.09l.42.36V21.08l-.41.31L9.59,24.75l3.92-4.95.32-.41h-5l-.43.78a3.69,3.69,0,0,1-.48.78,1.17,1.17,0,0,1-.29.22,1.65,1.65,0,0,0-.27.21l-.15.15L7,21.39a2,2,0,0,1-.51-1.17c-.14.12-.34.29-.65.52h0l0,0a1.12,1.12,0,0,1-.5.18h0l-.15,0L5,20.79a3.85,3.85,0,0,1-.25-1.4H4a.42.42,0,0,1-.3.22H3.6l-.08-.11-.07-.12H1l.33.41,3.91,4.95L.8,21.39l-.41-.31V33.45l.42-.36,5.28-4.52.77,9.9,0,0a4,4,0,0,1-1,.73,3.42,3.42,0,0,1-1.16.41H4.54l-.33,0a2,2,0,0,0-.42-.07.75.75,0,0,0-.29.06c-.3.17-.36.51-.67.71a2.54,2.54,0,0,0-1.48,1,2,2,0,0,0-.19.75,1.9,1.9,0,0,0,0,.63.45.45,0,0,0,.12.25l.07,0h0l.06,0a.27.27,0,0,1,.09-.11l0-.05.11-.11.07-.06.12-.11L2,42.52l.14-.1.1-.07.15-.09.09,0,.17-.07.07,0a.79.79,0,0,1,.2,0h0a.23.23,0,0,1,.17.05s-.08.14-.2.28l-.17.18a.73.73,0,0,1-.09.11,1.48,1.48,0,0,0-.16.46,4.53,4.53,0,0,0-.06.5A1.68,1.68,0,0,0,2.77,45a1.2,1.2,0,0,0,.21.17l.07,0,.15.08.08,0,.11,0,.06,0a.33.33,0,0,0,.1,0c.08,0,0-.54,0-.62a2.1,2.1,0,0,1,.08-.7,2,2,0,0,1,.29-.42A.76.76,0,0,1,4,43.49l0,0,.09-.08,0,0a.31.31,0,0,1,.1-.05l.07,0h.13a.59.59,0,0,0,0,.45,2.09,2.09,0,0,1,0,.5,2.24,2.24,0,0,0,.23,1l.06.13h0a2.14,2.14,0,0,0,.1.22v0a1.17,1.17,0,0,0,.12.2v0c0,.05.07.09.1.09h0c.13,0,.23-.25.31-.41l.07-.14A3.52,3.52,0,0,0,5.68,45a2.59,2.59,0,0,0,.09-.4.37.37,0,0,1,0-.11s0,0,0,0a.19.19,0,0,1,0-.08l0,0,0-.05h0l.06,0H6c.13,0,.15.08.17.19s.06.27.08.41a2.72,2.72,0,0,0,.13.51c.15.29.38.52.54.8h0L7,46.06H7L7.06,46c.05-.1,0-.18,0-.28s0-.2,0-.3a5.46,5.46,0,0,1,.29-1,1.05,1.05,0,0,1,.55-.67c.15,0,.3,0,.39-.19a3.45,3.45,0,0,0,.35-.87c0-.1.46-.08.65-.1s.43-.13.59-.15a2.56,2.56,0,0,0,.72-.28,1.62,1.62,0,0,0,.46-.29.67.67,0,0,1,.14-.09l0,0,.1,0h0a.11.11,0,0,1,.06,0h0a.34.34,0,0,1,.1.13c.09.26-.05.53-.09.78h0a.27.27,0,0,0,.09,0l0,0,.06,0,0,0,.05-.06v0l0-.08a2.11,2.11,0,0,0,.56-.54c.09-.11.17-.23.24-.31l.11-.16a.53.53,0,0,1,.11-.14l0,0,.09,0h0l0,0h0a.2.2,0,0,1,.07.13l0,.12c0,.16.14.41.16.53a.18.18,0,0,0,.1.12h0a.4.4,0,0,0,.15,0,.42.42,0,0,0,.16-.12.66.66,0,0,1,.14-.15,1.61,1.61,0,0,1,.28-.17c.12-.08.35-.32.53-.48a.47.47,0,0,1,.14-.12.28.28,0,0,1,.16-.07h.07a.15.15,0,0,1,0,.06c.06.16-.08.34-.1.49s-.07.05-.07.07v0s0,0,.07,0h.18a.56.56,0,0,0,.17-.09c.31-.18.47-.61.82-.79l.25,0h0a.35.35,0,0,1,.22.06c0,.53,0,.21-.15.72,0,.06.18,0,.22.17a1.49,1.49,0,0,0,0,.18s0,0,0,.05,0,.08,0,.11a.08.08,0,0,0,0,0,.16.16,0,0,0,0,.07l0,0s0,0,.06,0a3.19,3.19,0,0,0,.34-.5,1.51,1.51,0,0,1,.14-.21l0,0a.38.38,0,0,1,.09-.09h0l.07,0h0a.12.12,0,0,1,.07.05v0l0,.09s0,0,0,0v.11a.2.2,0,0,1,0,.09.83.83,0,0,0,0,.49.25.25,0,0,1,0,.09s0,.06,0,.06.05,0,.07,0h.05l.08-.06.05,0,.1-.11s0,0,0,0l.12-.15,0,0,.16-.21a.86.86,0,0,1,.07-.1l0,0,.05-.06,0,0,0,0h0a.05.05,0,0,1,0,0v.05s0,0,0,0,0,0,0,0h.08c.13,0,.09-.15.08-.25a.15.15,0,0,1,0-.14,0,0,0,0,1,0,0,.13.13,0,0,1,.08,0h0l.09,0h0a.29.29,0,0,1,.12.1s0,0,0,0h0l0,0,.06,0,0,0,.08.07,0,.05.08.12a1.67,1.67,0,0,0,.37.47,11.21,11.21,0,0,0,1,.8,3.08,3.08,0,0,1,.73.71,2,2,0,0,0,.25.39l.26.26a1.4,1.4,0,0,1,.23.3,1.3,1.3,0,0,1,.12.21c0,.09,0,.17,0,.22a.27.27,0,0,1-.16,0h-.31c-.19,0-.39,0-.59,0l-.26,0a6.45,6.45,0,0,0-.81.16h0a16.44,16.44,0,0,1-2,.47,4.31,4.31,0,0,0-1.43.52l-.19.09-.46.24c-.14.09-.24.17-.22.22.15.31-.66.21-1.38,1.55l1-.18c.26,0-.14.41-.26.53l0,0c-.19.16-.42.29-.6.46-.46.46-.67,1.09-1.08,1.59a.43.43,0,0,0,.08.14l0,0a.09.09,0,0,0,.06,0h0l0,0,0,0,.07-.06.07,0,0,0,.1,0h0a.16.16,0,0,1,.1,0V51c-.29.41-.86,1-.81,1.09s0,0,.06,0l.05,0,.15-.06.21-.09h0l.07,0h0a2.21,2.21,0,0,1-.34,1,1.57,1.57,0,0,1-.25,0h-.05l-.17,0,0,0-.15-.08-.22-.08h0a1.37,1.37,0,0,0-.31,0h-.11l-.26,0-.18,0L12,52.52l-.17-.05a1.6,1.6,0,0,1-.26-.08l-.12,0-.19-.08,0,0a5.08,5.08,0,0,0-.39-.41,2.83,2.83,0,0,1-.43-.32,5.12,5.12,0,0,0-.36-.43,2.17,2.17,0,0,0-.84-.64,1.57,1.57,0,0,0-.49-.07H8.63a4.91,4.91,0,0,0-.68.06,3,3,0,0,0-.61.16c-.18.07-.67.36-.78.41s-.36.25-.33.37a.07.07,0,0,0,.06,0h.56a2.35,2.35,0,0,1,.54.15c.05.06,0,.11,0,.13H6.86a2.17,2.17,0,0,0-.4,0H6.39a4.2,4.2,0,0,0-.51.16c-.73.32-1,1.32-1.17,2v0h0l0,0h0L5,54H5a1.6,1.6,0,0,0,.26-.15l.28-.17.13-.06a1.66,1.66,0,0,1,.27-.13l.17,0a1.26,1.26,0,0,1,.28-.05h0c.63,0,1.29.3,1.32.63a6.37,6.37,0,0,1-.88.36,1.69,1.69,0,0,0-.88.68,2,2,0,0,0,0,1.42.61.61,0,0,0,.15.17l0,0,.11.05h0s0,0,0-.05A1.4,1.4,0,0,1,6.62,56,2.19,2.19,0,0,1,7,55.74a1,1,0,0,1,.16-.06l.3-.12.2,0L8,55.47l.21,0h.29c.15.05.48,0,.51.2s-.22.24-.38.31c-.66.32-1.4.72-1.48,1.52a.73.73,0,0,0,.11.54.27.27,0,0,0,.1.09h.12a.16.16,0,0,0,.09,0l0,0A.25.25,0,0,0,7.7,58a1.43,1.43,0,0,1,.46-.39,5,5,0,0,1,1.49-.47c.28,0,.57-.07.84-.09l.11,0h.26c.06,0,.11,0,.12,0a2,2,0,0,0,.94.7c.25.08,1.19.36,1.24.54a.38.38,0,0,1,.09.13.49.49,0,0,1-.12.41.06.06,0,0,0,0,.08.59.59,0,0,0,.24.27.25.25,0,0,0,.17,0l.24-.09.44-.1.15-.07.15-.07.06,0,.11-.05h.18c.25,0-.07.38.24.45.12.28-.15.41-.26.58s.05.1.05.18a.07.07,0,0,0,0,.06h.21l.07,0h0l.14-.11.12-.12.15-.14a2,2,0,0,1,.34-.26l.19-.08c.16,0,.3-.13.46-.18l.33-.06.32,0a2.18,2.18,0,0,0,.23-.09l.21-.12c.44-.19.41-.82.37-1.21a2.81,2.81,0,0,1,.48-1l.12-.12,0,0,.11-.08.05,0,.1-.05.06,0,.1,0h.09s.05,0,.07,0l0,0a.18.18,0,0,1,.05.07.05.05,0,0,1,0,0,.61.61,0,0,1,0,.17c0,.15-.08.39,0,.53a.12.12,0,0,0,0,.08h.11a.15.15,0,0,1,.09,0,.17.17,0,0,0,.13,0l.05,0a.18.18,0,0,0,.05-.07L20,57a.75.75,0,0,1,.06-.13.3.3,0,0,1,.09-.13c0-.43.46-.58.44-1,.31-.28.24-.79.57-1a2,2,0,0,1,.47.9,1.38,1.38,0,0,0,.2.38,2.11,2.11,0,0,1,.2.53,1.71,1.71,0,0,0,.22.45.42.42,0,0,0,.23-.53c0-.2,0-.28.11-.45s.16-.64.39-.65.25.16.35.32.22.32.39.35h.07a.16.16,0,0,0,.14-.06v0a.38.38,0,0,0,0-.16,1.48,1.48,0,0,1,0-.21h0a.53.53,0,0,1,0-.19c.13-.13.29-.23.34-.38a.12.12,0,0,1,.05-.06l0,0,.07-.07,0,0,.06-.06h0l0,0h0c0,.14-.1.22-.1.35s.17.19.16.35a2.34,2.34,0,0,1-.09.24c0,.1,0,.21-.06.31a1.3,1.3,0,0,0,0,.59c.23-.05.49-.38.67-.54l.06-.05h0l.05,0h0a.07.07,0,0,1,.06,0A3.84,3.84,0,0,1,25,57a3.9,3.9,0,0,0-.31,1.39,3.44,3.44,0,0,0,.13,1,.29.29,0,0,0,.09.13l0,0H25s0,0,.06,0,0,0,0,0a.48.48,0,0,0,.07-.16h0a.53.53,0,0,0,0-.19.44.44,0,0,0,0-.2c0-.13-.08-.07,0-.2a.28.28,0,0,1,.05-.08h0l0,0h0l.05,0h0l.06.07,0,0,0,.06a.18.18,0,0,0,.05.07c.06.08.16.09.21.2.14.36-.1.87-.06,1.25a.88.88,0,0,1,0,.16,1.09,1.09,0,0,1,0,.18h0c0,.3,0,.62.16.76h0a.38.38,0,0,0,.16.06s0,0,0,0v0l0-.06a1.21,1.21,0,0,1,.09-.2.56.56,0,0,1,0-.08.67.67,0,0,0,.11-.14.87.87,0,0,0,.07-.17v0a.14.14,0,0,1,0-.06v0l0-.06,0,0s0,0,0,0h0l0,0h0c.16,0,.1.6.12.71a2.16,2.16,0,0,0,0,.51c0,.13.08.26.13.4s.21.6.35.88a.54.54,0,0,0,.05.11l0,0s0,.05.07,0,.1-.17.11-.23v0a.24.24,0,0,1,0-.08s0,0,0,0,0-.06,0-.08l0,0a.1.1,0,0,1,0-.05l0,0h.09c.11,0,.05.12.08.2a.71.71,0,0,1,.18.3c.11.34,0,.77.14,1.08,0,.14.26.24.21.42a.14.14,0,0,1-.06.08H28a.12.12,0,0,0-.09,0c0,.06,0,.15,0,.21a.84.84,0,0,1-.11.21l-.11.07a2.41,2.41,0,0,0-.25.08l-.1.07a.5.5,0,0,1-.15.14l-.17.11a3.45,3.45,0,0,0-.28.26,1.74,1.74,0,0,1-.29.25,1.78,1.78,0,0,1-.73.29,1.75,1.75,0,0,1-.32,0h-.14a3.45,3.45,0,0,1-.46-.12c-.21,0-.43,0-.64,0s-.46-.08-.69-.12h-.15a.58.58,0,0,0-.28.09c-.12.09-.25.16-.38.25a.46.46,0,0,0-.14.17c0,.09,0,.15-.08.21a3.31,3.31,0,0,1-.66.31c-.11.06-.23.12-.35.2a1.76,1.76,0,0,0-.34.33,2.73,2.73,0,0,0-.37.86,4,4,0,0,0-.07.47.28.28,0,0,0,0,.13s0,.06.11.07h0a1.29,1.29,0,0,0,.24,0h0l.26-.1.06,0L21.6,69h0l.06,0,.12,0h0c-.05.2-.15.21-.29.49a2.1,2.1,0,0,0,0,1.09s0,0,.08,0l.05,0,.14-.09.16-.11a1.73,1.73,0,0,1,.2-.15c.12-.08.24-.17.38-.25a5.36,5.36,0,0,0,1.31-.66c.08.08.18.18.13.29a2.41,2.41,0,0,0-.66.8c0,.1-.07.21-.11.32l0,.1-.06.22,0,.12c0,.07,0,.13,0,.19a.5.5,0,0,1,0,.12,1,1,0,0,1,0,.17v.1a.33.33,0,0,0,0,.14v.07a.21.21,0,0,0,0,.12s0,0,0,0a.08.08,0,0,0,.07,0,.41.41,0,0,0,.13-.08c.16-.17.39-.25.56-.4a6.47,6.47,0,0,1,.57-.47l.58-.44.15-.13.14-.11.06,0,.12-.09,0,0,.05,0s0,0,0,0a2.5,2.5,0,0,0-.08.85c.07.45.53.81.68,1.24,0,0,0,0,0,0h0l.09,0h0a.65.65,0,0,0,.11-.12l0,0a.64.64,0,0,0,.08-.14v0a.22.22,0,0,0,0-.13.82.82,0,0,1,.09-.38c.22-.47.54-.87.79-1.32,0,0,.05-.12.09-.2a.37.37,0,0,1,.11-.18.83.83,0,0,1,.27-.07h.69a.79.79,0,0,0,.29-.08,1.57,1.57,0,0,1,.75-.29,4.69,4.69,0,0,0,1.29-.44,2.73,2.73,0,0,1,.51-.14,2.89,2.89,0,0,0,.43-.22,4.59,4.59,0,0,1,.48-.17c.36-.12.73-.21,1.08-.34l.55-.26a.24.24,0,0,1,.13,0l.13,0,.13,0,.08,0h0c.06,0,.1.07.14.1a.28.28,0,0,0,.2.06.76.76,0,0,0,.48-.15c.12-.1.21,0,.27-.24a1.77,1.77,0,0,0,0-.4,1.47,1.47,0,0,0-.17-.88c-.17-.22-.5-.21-.69-.39s-.14-.31.09-.36.43,0,.51-.21a.13.13,0,0,0,0-.1c0-.21-.56-.27-.67-.38a.19.19,0,0,1-.07-.11.61.61,0,0,1-.05-.12,2.31,2.31,0,0,0-.27-.42c-.06-.09-.23-.32-.17-.43a.05.05,0,0,1,0,0h0l.14.07.15.09a.71.71,0,0,0,.21,0l.26,0a2,2,0,0,0,.6-.08c.12,0,.43-.2.27-.37s-.31-.08-.42-.14a1.9,1.9,0,0,0-.28-.1c-.13-.06-.12-.08-.21-.17a1.11,1.11,0,0,0-.37-.2.58.58,0,0,1-.36-.48c0-.26.34-.17.51-.21s1.08-.38.68-.71a2.19,2.19,0,0,0-.55-.28c-.17-.06-.43-.09-.53-.26a.75.75,0,0,1-.1-.36c0-.05,0-.06.07-.06h.14a.06.06,0,0,0,.06,0,.51.51,0,0,1,.26-.07h.09a1.52,1.52,0,0,1,.21,0l.2,0a.86.86,0,0,0,.16,0c.12,0,.12-.33.11-.42a.87.87,0,0,0-.16-.44.46.46,0,0,0-.24-.12.6.6,0,0,1-.24-.12.41.41,0,0,1,0-.61c.06-.1.51-.49.49-.58s.07-.24.21-.32a.72.72,0,0,0,.34-.44,3.88,3.88,0,0,0,.23-.56h0v0h0v.13h0v0c0,.36-.08.9.3,1.09.1.06.28.11.36.21a1.59,1.59,0,0,1,.09.39,1.58,1.58,0,0,0,.13.34.66.66,0,0,0,.21.23l.08,0a.52.52,0,0,0,.21.07l.16,0,.13,0h0a.13.13,0,0,1,.1,0h0c.09.08.1.29.16.4a2.29,2.29,0,0,0,.61.68.89.89,0,0,0,.29.15l.09,0a.66.66,0,0,0,.28,0,1.22,1.22,0,0,0,.48-.21A1.38,1.38,0,0,0,40.32,59a.63.63,0,0,0,0-.19A.33.33,0,0,0,40.18,58.62Z"></path>
  <rect class="cls-2" x="66.44" y="0.34" width="1.88" height="79.88"></rect>
  <path class="cls-1" d="M111.32,20.89a6.21,6.21,0,0,0-2.25-1.71,7.47,7.47,0,0,0-3.09-.6,7.75,7.75,0,0,0-5.83,2.57A8.75,8.75,0,0,0,98.44,24a10.94,10.94,0,0,0,0,7.26,9.19,9.19,0,0,0,1.69,2.87,7.67,7.67,0,0,0,2.53,1.89,7.32,7.32,0,0,0,3.12.67,7,7,0,0,0,3.39-.79,6.71,6.71,0,0,0,2.42-2.23l5.18,3.86a10.86,10.86,0,0,1-4.54,3.7,14,14,0,0,1-5.65,1.19,17.38,17.38,0,0,1-6.09-1,14,14,0,0,1-4.82-3,13.45,13.45,0,0,1-3.16-4.67,15.86,15.86,0,0,1-1.13-6.13,15.83,15.83,0,0,1,1.13-6.13,13.58,13.58,0,0,1,3.16-4.68,14.09,14.09,0,0,1,4.82-3,17.38,17.38,0,0,1,6.09-1,15.64,15.64,0,0,1,2.49.22,13.5,13.5,0,0,1,2.54.7A11.37,11.37,0,0,1,114,15,9.53,9.53,0,0,1,116.09,17Z"></path>
  <path class="cls-1" d="M118.64,27.66a16,16,0,0,1,1.13-6.13,13.47,13.47,0,0,1,3.17-4.68,14,14,0,0,1,4.81-3,18.35,18.35,0,0,1,12.18,0,14.09,14.09,0,0,1,4.82,3,13.58,13.58,0,0,1,3.16,4.68A15.83,15.83,0,0,1,149,27.66a15.86,15.86,0,0,1-1.13,6.13,13.45,13.45,0,0,1-3.16,4.67,14,14,0,0,1-4.82,3,18.52,18.52,0,0,1-12.18,0,13.83,13.83,0,0,1-4.81-3,13.33,13.33,0,0,1-3.17-4.67A16.05,16.05,0,0,1,118.64,27.66Zm6.45,0a10.34,10.34,0,0,0,.61,3.64,8.35,8.35,0,0,0,1.77,2.87,8,8,0,0,0,2.77,1.89,10,10,0,0,0,7.2,0,8,8,0,0,0,2.77-1.89A8.35,8.35,0,0,0,142,31.3,10.94,10.94,0,0,0,142,24a8.25,8.25,0,0,0-1.77-2.89,8,8,0,0,0-2.77-1.89,9.87,9.87,0,0,0-7.2,0,8,8,0,0,0-2.77,1.89A8.25,8.25,0,0,0,125.7,24,10.38,10.38,0,0,0,125.09,27.66Z"></path>
  <path class="cls-1" d="M153.26,13.57h10.91a19.19,19.19,0,0,1,4.08.42,9.75,9.75,0,0,1,3.38,1.39A7,7,0,0,1,173.94,18a8.89,8.89,0,0,1,.85,4.12,8.22,8.22,0,0,1-1.55,5.07,7,7,0,0,1-4.54,2.65l7.17,11.9h-7.44l-5.89-11.27h-3.07V41.75h-6.21Zm6.21,11.66h3.66q.84,0,1.77-.06a5.45,5.45,0,0,0,1.69-.36,2.93,2.93,0,0,0,1.26-.93,2.87,2.87,0,0,0,.5-1.79,3,3,0,0,0-.44-1.71,2.93,2.93,0,0,0-1.12-1,5.11,5.11,0,0,0-1.55-.46,12.51,12.51,0,0,0-1.71-.12h-4.06Z"></path>
  <path class="cls-1" d="M179.85,13.57h8.43l12,19.58h.08V13.57h6.21V41.75h-8.12L186.14,21.69h-.08V41.75h-6.21Z"></path>
  <path class="cls-1" d="M213.32,13.57h19.14V19.3H219.53v5.25h12.21v5.74H219.53V36h13.65v5.73H213.32Z"></path>
  <path class="cls-1" d="M239,13.57h10.9a19.13,19.13,0,0,1,4.08.42,9.6,9.6,0,0,1,3.38,1.39A7,7,0,0,1,259.62,18a8.89,8.89,0,0,1,.86,4.12,8.28,8.28,0,0,1-1.55,5.07,7,7,0,0,1-4.54,2.65l7.16,11.9h-7.44l-5.89-11.27h-3.06V41.75H239Zm6.21,11.66h3.66q.83,0,1.77-.06a5.51,5.51,0,0,0,1.69-.36,3,3,0,0,0,1.25-.93,2.8,2.8,0,0,0,.5-1.79,3,3,0,0,0-.44-1.71,2.9,2.9,0,0,0-1.11-1,5.11,5.11,0,0,0-1.55-.46,12.73,12.73,0,0,0-1.71-.12h-4.06Z"></path>
  <path class="cls-1" d="M279.46,20.46a4.44,4.44,0,0,0-2-1.42,7.47,7.47,0,0,0-2.44-.46,6.83,6.83,0,0,0-1.4.16,5.59,5.59,0,0,0-1.35.5,3,3,0,0,0-1,.9,2.29,2.29,0,0,0-.39,1.35,2.23,2.23,0,0,0,.95,2,8.86,8.86,0,0,0,2.41,1.15q1.46.48,3.12,1a13,13,0,0,1,3.13,1.35,7.51,7.51,0,0,1,2.41,2.35,7.22,7.22,0,0,1,.95,3.94,9.1,9.1,0,0,1-.87,4.1,8.45,8.45,0,0,1-2.37,2.91,10.06,10.06,0,0,1-3.47,1.71,15.23,15.23,0,0,1-4.15.55,15,15,0,0,1-5.1-.83,12.9,12.9,0,0,1-4.38-2.71l4.42-4.85a6.51,6.51,0,0,0,2.41,2,6.93,6.93,0,0,0,3,.69,6.81,6.81,0,0,0,1.54-.18,5,5,0,0,0,1.39-.53,3,3,0,0,0,1-.92,2.22,2.22,0,0,0,.38-1.31,2.38,2.38,0,0,0-1-2,9.2,9.2,0,0,0-2.45-1.26c-1-.34-2-.69-3.18-1a14.07,14.07,0,0,1-3.19-1.39,7.83,7.83,0,0,1-2.45-2.31,6.62,6.62,0,0,1-1-3.78,8.55,8.55,0,0,1,.89-4,8.77,8.77,0,0,1,2.39-2.87,10.51,10.51,0,0,1,3.44-1.73,14.26,14.26,0,0,1,4-.58,15.85,15.85,0,0,1,4.62.68,10.59,10.59,0,0,1,4,2.27Z"></path>
  <path class="cls-1" d="M294.63,19.06h-8V13.57h22.28v5.49h-8V41.75h-6.2Z"></path>
  <path class="cls-1" d="M309.15,27.66a15.83,15.83,0,0,1,1.14-6.13,13.44,13.44,0,0,1,3.16-4.68,14,14,0,0,1,4.82-3,18.32,18.32,0,0,1,12.17,0,14,14,0,0,1,4.82,3,13.44,13.44,0,0,1,3.16,4.68,15.83,15.83,0,0,1,1.14,6.13,15.86,15.86,0,0,1-1.14,6.13,13.31,13.31,0,0,1-3.16,4.67,13.87,13.87,0,0,1-4.82,3,18.49,18.49,0,0,1-12.17,0,13.87,13.87,0,0,1-4.82-3,13.31,13.31,0,0,1-3.16-4.67A15.86,15.86,0,0,1,309.15,27.66Zm6.45,0a10.11,10.11,0,0,0,.62,3.64A8.35,8.35,0,0,0,318,34.17a8.08,8.08,0,0,0,2.76,1.89,10,10,0,0,0,7.21,0,8.08,8.08,0,0,0,2.76-1.89,8.35,8.35,0,0,0,1.77-2.87,10.94,10.94,0,0,0,0-7.26,8.25,8.25,0,0,0-1.77-2.89A8.08,8.08,0,0,0,328,19.26a9.9,9.9,0,0,0-7.21,0A8.08,8.08,0,0,0,318,21.15,8.25,8.25,0,0,0,316.22,24,10.16,10.16,0,0,0,315.6,27.66Z"></path>
  <path class="cls-1" d="M343,13.57h8.44l12,19.58h.08V13.57h6.2V41.75h-8.11l-12.3-20.06h-.08V41.75H343Z"></path>
  <path class="cls-1" d="M375.65,13.57H394.8V19.3H381.86v5.25h12.22v5.74H381.86V36h13.65v5.73H375.65Z"></path>
  <path class="cls-2" d="M97.63,55.15h1.88l5.27,12.23h-2.49l-1.14-2.8h-5.3l-1.11,2.8H92.3Zm2.76,7.57-1.88-5-1.92,5Z"></path>
  <path class="cls-2" d="M116,58a3.59,3.59,0,0,0-1.31-1,3.53,3.53,0,0,0-1.27-.24,4.32,4.32,0,0,0-1.72.33,4,4,0,0,0-1.32.94,4.12,4.12,0,0,0-.86,1.39,4.8,4.8,0,0,0-.3,1.71,5.25,5.25,0,0,0,.3,1.81,4.15,4.15,0,0,0,.86,1.44,4.05,4.05,0,0,0,1.32.95,4.16,4.16,0,0,0,1.72.35,3.07,3.07,0,0,0,1.44-.36,3.91,3.91,0,0,0,1.31-1.13l1.8,1.28a5,5,0,0,1-2,1.66,6.37,6.37,0,0,1-2.54.52,7.28,7.28,0,0,1-2.6-.46,6,6,0,0,1-2-1.3,6.11,6.11,0,0,1-1.34-2,6.89,6.89,0,0,1-.48-2.61,7.13,7.13,0,0,1,.48-2.67,6.08,6.08,0,0,1,1.34-2,5.86,5.86,0,0,1,2-1.31,7.28,7.28,0,0,1,2.6-.45,5.87,5.87,0,0,1,2.31.44,5.34,5.34,0,0,1,2,1.49Z"></path>
  <path class="cls-2" d="M134,67.38h-7.12a7.62,7.62,0,0,1-2.66-.44,6.15,6.15,0,0,1-2.11-1.26,5.86,5.86,0,0,1-1.4-2A6.69,6.69,0,0,1,120.2,61a6,6,0,0,1,.51-2.48,6.13,6.13,0,0,1,1.39-2,6.64,6.64,0,0,1,2.05-1.28,6.86,6.86,0,0,1,2.48-.45,6.78,6.78,0,0,1,2.48.45,6.64,6.64,0,0,1,2,1.28,6,6,0,0,1,1.9,4.44,5.51,5.51,0,0,1-.23,1.7,5.38,5.38,0,0,1-.61,1.3,5.15,5.15,0,0,1-.84.94,8.87,8.87,0,0,1-.89.64v0H134Zm-7.42-10.57a4,4,0,0,0-1.63.32,3.81,3.81,0,0,0-1.3.89,4.14,4.14,0,0,0-.85,1.34,4.51,4.51,0,0,0-.32,1.7,4.76,4.76,0,0,0,.32,1.74A4,4,0,0,0,125,65.09a4.22,4.22,0,0,0,1.65.32,4.31,4.31,0,0,0,1.66-.32,4,4,0,0,0,1.33-.91,4.24,4.24,0,0,0,.86-1.38,4.76,4.76,0,0,0,.31-1.74,4.51,4.51,0,0,0-.31-1.7,4.16,4.16,0,0,0-.86-1.34,3.84,3.84,0,0,0-1.33-.89A4.26,4.26,0,0,0,126.58,56.81Z"></path>
  <path class="cls-2" d="M146.77,62.89a5.13,5.13,0,0,1-.38,2,4.48,4.48,0,0,1-1,1.51,4.61,4.61,0,0,1-1.55,1,5.79,5.79,0,0,1-3.91,0,4.76,4.76,0,0,1-1.56-1,4.34,4.34,0,0,1-1-1.51,5.13,5.13,0,0,1-.37-2V55.15h2.18v7.67a3.49,3.49,0,0,0,.13.94,2.89,2.89,0,0,0,.46.91,2.39,2.39,0,0,0,.85.68,3.29,3.29,0,0,0,2.61,0,2.39,2.39,0,0,0,.85-.68,2.89,2.89,0,0,0,.46-.91,3.49,3.49,0,0,0,.13-.94V55.15h2.18Z"></path>
  <path class="cls-2" d="M151.13,55.15h2.18V67.38h-2.18Z"></path>
  <path class="cls-2" d="M163.71,57.77a2,2,0,0,0-.92-.73,3.19,3.19,0,0,0-1.22-.23,3,3,0,0,0-.74.08,2,2,0,0,0-.64.28,1.41,1.41,0,0,0-.45.49,1.37,1.37,0,0,0-.18.72,1.13,1.13,0,0,0,.44.95,4,4,0,0,0,1.07.57c.42.16.89.32,1.4.47a5.69,5.69,0,0,1,1.4.62,3.57,3.57,0,0,1,1.07,1,3.13,3.13,0,0,1,.43,1.75,3.86,3.86,0,0,1-.36,1.72,3.46,3.46,0,0,1-1,1.22,4.23,4.23,0,0,1-1.42.72,5.77,5.77,0,0,1-1.72.25,6.47,6.47,0,0,1-2.19-.38A4.33,4.33,0,0,1,156.88,66l1.65-1.59a2.77,2.77,0,0,0,1,.94,3,3,0,0,0,1.38.34,2.91,2.91,0,0,0,.76-.11,2.39,2.39,0,0,0,.69-.31,1.59,1.59,0,0,0,.5-.53,1.35,1.35,0,0,0,.19-.73,1.27,1.27,0,0,0-.43-1,4.05,4.05,0,0,0-1.07-.61c-.43-.17-.9-.33-1.4-.48a5.71,5.71,0,0,1-1.4-.61,3.45,3.45,0,0,1-1.08-1,3.15,3.15,0,0,1-.43-1.74,3.29,3.29,0,0,1,.39-1.64,3.63,3.63,0,0,1,1-1.15,4.56,4.56,0,0,1,1.44-.68,6.26,6.26,0,0,1,1.66-.22,6,6,0,0,1,1.88.29,4.39,4.39,0,0,1,1.63,1Z"></path>
  <path class="cls-2" d="M169.31,55.15h2.18V67.38h-2.18Z"></path>
  <path class="cls-2" d="M178.4,57.12h-3.75v-2h9.68v2h-3.75V67.38H178.4Z"></path>
  <path class="cls-2" d="M187.5,55.15h2.18V67.38H187.5Z"></path>
  <path class="cls-2" d="M193.08,61.32a7.13,7.13,0,0,1,.48-2.67,6.08,6.08,0,0,1,1.34-2,5.86,5.86,0,0,1,2-1.31,7.3,7.3,0,0,1,2.61-.45,6.93,6.93,0,0,1,2.62.42,5.63,5.63,0,0,1,2.06,1.29,5.77,5.77,0,0,1,1.35,2,7,7,0,0,1,.48,2.66,6.82,6.82,0,0,1-.48,2.61,5.88,5.88,0,0,1-1.35,2,6,6,0,0,1-2.06,1.32,7.36,7.36,0,0,1-5.23,0,6,6,0,0,1-2-1.3,6.11,6.11,0,0,1-1.34-2A6.89,6.89,0,0,1,193.08,61.32Zm2.28-.14a5.25,5.25,0,0,0,.3,1.81,4.31,4.31,0,0,0,.86,1.44,4.05,4.05,0,0,0,1.32.95,4.43,4.43,0,0,0,3.45,0,4,4,0,0,0,1.33-.95,4.15,4.15,0,0,0,.86-1.44,5.25,5.25,0,0,0,.3-1.81,4.8,4.8,0,0,0-.3-1.71,4.12,4.12,0,0,0-.86-1.39,4,4,0,0,0-1.33-.94,4.67,4.67,0,0,0-3.45,0,4,4,0,0,0-1.32.94,4.28,4.28,0,0,0-.86,1.39A4.8,4.8,0,0,0,195.36,61.18Z"></path>
  <path class="cls-2" d="M209.87,55.15h2.88l5.93,9.09h0V55.15h2.17V67.38h-2.76l-6-9.38h0v9.38h-2.17Z"></path>
  <path class="cls-2" d="M240.76,64.5l2.64,2.88h-2.68l-1.3-1.4a4.88,4.88,0,0,1-1.59,1.3,4.47,4.47,0,0,1-2,.42,5.09,5.09,0,0,1-1.56-.24,3.78,3.78,0,0,1-1.32-.69,3.29,3.29,0,0,1-1.27-2.67,3.09,3.09,0,0,1,.21-1.15,3.72,3.72,0,0,1,1.4-1.74,4.5,4.5,0,0,1,1-.55c-.2-.22-.38-.43-.55-.64a6.62,6.62,0,0,1-.44-.64,3.79,3.79,0,0,1-.3-.71,3.09,3.09,0,0,1-.11-.83,2.9,2.9,0,0,1,.28-1.31,2.72,2.72,0,0,1,.77-.94,3.24,3.24,0,0,1,1.13-.56,4.5,4.5,0,0,1,1.33-.19,4.66,4.66,0,0,1,1.31.17,3.12,3.12,0,0,1,1.1.53,2.47,2.47,0,0,1,.76.9,2.8,2.8,0,0,1,.28,1.3,2.51,2.51,0,0,1-.2,1,3.32,3.32,0,0,1-.56.87,5.31,5.31,0,0,1-.78.71,7,7,0,0,1-.89.54l2,2.13L240.77,61h2.44Zm-5.14-2.61a6.17,6.17,0,0,0-.6.39,3.34,3.34,0,0,0-.54.44,2,2,0,0,0-.39.55A1.61,1.61,0,0,0,234,64a1.85,1.85,0,0,0,.15.74,1.81,1.81,0,0,0,.42.59,2.07,2.07,0,0,0,.62.38,2,2,0,0,0,.74.14,2.15,2.15,0,0,0,1.25-.38,8.81,8.81,0,0,0,1-.83Zm.83-5.19a1.63,1.63,0,0,0-1,.34,1.09,1.09,0,0,0-.43.89,1.12,1.12,0,0,0,.11.47,2.48,2.48,0,0,0,.27.47,5.37,5.37,0,0,0,.37.44l.41.4.55-.32a3.2,3.2,0,0,0,.55-.42,2,2,0,0,0,.4-.51,1.17,1.17,0,0,0,.16-.62,1,1,0,0,0-.4-.82A1.47,1.47,0,0,0,236.45,56.7Z"></path>
  <path class="cls-2" d="M253.63,55.15H257l3.27,8.57,3.3-8.57h3.29V67.38h-2.08V57.22h0L261,67.38h-1.52l-3.72-10.16h0V67.38h-2.08Z"></path>
  <path class="cls-2" d="M275.28,55.15h1.88l5.27,12.23h-2.49l-1.14-2.8h-5.3l-1.11,2.8H270ZM278,62.72l-1.88-5-1.92,5Z"></path>
  <path class="cls-2" d="M285.53,55.15h2.88l5.93,9.09h0V55.15h2.18V67.38h-2.77L287.74,58h0v9.38h-2.18Z"></path>
  <path class="cls-2" d="M305,55.15h1.89l5.27,12.23h-2.49l-1.14-2.8h-5.31l-1.1,2.8h-2.44Zm2.77,7.57-1.88-5-1.92,5Z"></path>
  <path class="cls-2" d="M326.1,66.49A10.67,10.67,0,0,1,321,67.7a7.28,7.28,0,0,1-2.6-.46,5.86,5.86,0,0,1-3.38-3.31,6.89,6.89,0,0,1-.48-2.61,7.13,7.13,0,0,1,.48-2.67,5.93,5.93,0,0,1,1.34-2,5.86,5.86,0,0,1,2-1.31,7.28,7.28,0,0,1,2.6-.45,10.08,10.08,0,0,1,2.63.33,5.58,5.58,0,0,1,2.2,1.2L324.25,58a3.92,3.92,0,0,0-1.43-.88,5,5,0,0,0-1.77-.31,4.32,4.32,0,0,0-1.72.33,4,4,0,0,0-1.32.94,4.12,4.12,0,0,0-.86,1.39,4.8,4.8,0,0,0-.3,1.71,5.25,5.25,0,0,0,.3,1.81,4.15,4.15,0,0,0,.86,1.44,4.05,4.05,0,0,0,1.32.95,4.16,4.16,0,0,0,1.72.35,7.78,7.78,0,0,0,1.56-.16,4.62,4.62,0,0,0,1.31-.48V62.2h-2.51v-2h4.69Z"></path>
  <path class="cls-2" d="M330.4,55.15h8.11v2h-5.93v3h5.62v2h-5.62v3.31h6.24v2H330.4Z"></path>
  <path class="cls-2" d="M342.74,55.15h3.32l3.27,8.57,3.3-8.57h3.29V67.38h-2.08V57.22h0l-3.72,10.16h-1.52l-3.72-10.16h0V67.38h-2.08Z"></path>
  <path class="cls-2" d="M360.43,55.15h8.11v2h-5.93v3h5.61v2h-5.61v3.31h6.24v2h-8.42Z"></path>
  <path class="cls-2" d="M372.72,55.15h2.88l5.93,9.09h0V55.15h2.18V67.38H381L374.93,58h0v9.38h-2.18Z"></path>
  <path class="cls-2" d="M390.71,57.12H387v-2h9.68v2h-3.75V67.38h-2.18Z"></path>
</svg>