<?xml version="1.0" encoding="UTF-8"?><svg id="uuid-1fea97b5-f56f-41ba-b71d-2f97c8fb091c" xmlns="http://www.w3.org/2000/svg" viewBox="0 0 515.37006 72.4949"><defs><style>.uuid-b78f3d81-927f-4cfa-aeab-5a8c18cda3e1{fill:#8d959b;}.uuid-b78f3d81-927f-4cfa-aeab-5a8c18cda3e1,.uuid-38d92f51-3993-41e3-a255-ac3192d75786,.uuid-29acd61e-6afd-4b7e-80e3-c90a87782751,.uuid-c97177d0-4475-40df-97b2-aee8e4f15d5b{stroke-width:0px;}.uuid-38d92f51-3993-41e3-a255-ac3192d75786{fill:#3cb7ef;}.uuid-29acd61e-6afd-4b7e-80e3-c90a87782751{fill:#313131;}.uuid-9996d653-1ae9-414e-b112-330eafa752f4{fill:none;stroke:#3cb7ef;stroke-linecap:round;stroke-linejoin:round;stroke-width:3.84253px;}.uuid-c97177d0-4475-40df-97b2-aee8e4f15d5b{fill:#000;}.uuid-e4eb51ec-44b6-4e9c-93bc-18db59054db9{isolation:isolate;}</style></defs><g id="uuid-bab9c7ad-34f7-457b-81d0-f667e8741ca4"><circle class="uuid-9996d653-1ae9-414e-b112-330eafa752f4" cx="33.21462" cy="33.21462" r="31.29336"/><g class="uuid-e4eb51ec-44b6-4e9c-93bc-18db59054db9"><path class="uuid-b78f3d81-927f-4cfa-aeab-5a8c18cda3e1" d="M50.143,44.79861c-.28174-.89355-.57324-1.77539-.875-2.64746-.30176-.87109-.59277-1.76465-.87402-2.68066h-8.80469c-.28174.91602-.56836,1.81445-.85986,2.69727-.29102.88184-.57812,1.75977-.85889,2.63086h-3.94141c.78125-2.41895,1.52295-4.65234,2.22412-6.7002.70117-2.04883,1.38721-3.98828,2.05859-5.81836.6709-1.83008,1.33691-3.57324,1.99805-5.22949.66162-1.65625,1.34277-3.29004,2.04395-4.90332h3.61816c.70166,1.61328,1.38379,3.24707,2.04541,4.90332s1.32812,3.39941,2,5.22949c.67236,1.83008,1.36426,3.76953,2.07617,5.81836.71143,2.04785,1.45898,4.28125,2.24072,6.7002h-4.09131ZM43.99164,26.52712c-.46143,1.15527-.98779,2.56055-1.5791,4.2168-.5918,1.65625-1.2085,3.4541-1.8501,5.39258h6.8584c-.64209-1.93848-1.26367-3.74707-1.86523-5.42578-.60156-1.67773-1.12305-3.07227-1.56396-4.18359Z"/></g><g class="uuid-e4eb51ec-44b6-4e9c-93bc-18db59054db9"><path class="uuid-29acd61e-6afd-4b7e-80e3-c90a87782751" d="M19.63617,22.14724c.44092.82812.93213,1.8418,1.47363,3.04004s1.09277,2.45703,1.6543,3.77539,1.11768,2.6582,1.66943,4.01953c.55127,1.3623,1.05762,2.62109,1.51904,3.77539.46094-1.1543.9624-2.41309,1.50391-3.77539.5415-1.36133,1.09277-2.70117,1.6543-4.01953s1.11328-2.57715,1.6543-3.77539c.5415-1.19824,1.03271-2.21191,1.47412-3.04004h3.41504c.18359,1.65625.35693,3.41602.52051,5.2793.16309,1.8623.31104,3.76953.44385,5.71973.13232,1.9502.25488,3.91113.36768,5.88281.1123,1.97266.20947,3.89551.29102,5.76953h-3.72949c-.08203-2.63672-.1792-5.34961-.2915-8.13867s-.28125-5.49121-.50586-8.10645c-.2207.50195-.48096,1.10059-.78174,1.79785-.30078.69824-.62207,1.45508-.96289,2.27148-.34131.81738-.68701,1.66211-1.0376,2.5332-.35107.87207-.69189,1.71582-1.02246,2.5332-.33105.81738-.63721,1.58008-.91748,2.28809-.28125.70801-.52197,1.31348-.72217,1.81445h-2.82715c-.20068-.50098-.44141-1.11133-.72217-1.83105-.28076-.71875-.58643-1.4873-.91748-2.30371-.33057-.81738-.67188-1.66113-1.02246-2.5332-.35107-.87109-.69727-1.71094-1.0376-2.5166-.34131-.80664-.66211-1.56348-.96289-2.27246-.30078-.70703-.56152-1.30176-.78174-1.78125-.2251,2.61523-.39404,5.31738-.50635,8.10645s-.20898,5.50195-.29102,8.13867h-3.72949c.08154-1.87402.17822-3.81348.29053-5.81836.1123-2.00391.23535-3.99219.36768-5.96484.13232-1.97168.28076-3.88379.44434-5.73633.16309-1.85156.33643-3.5625.52051-5.13184h3.50537Z"/></g><path class="uuid-c97177d0-4475-40df-97b2-aee8e4f15d5b" d="M91.54437,43.28103c-.3125-.75-.72656-1.70312-1.24219-2.86035-.51562-1.15527-1.0708-2.40625-1.66406-3.75-.59424-1.34375-1.22705-2.72656-1.89893-4.14844-.67236-1.42188-1.30518-2.7666-1.89844-4.03223-.59424-1.26562-1.14844-2.39746-1.66406-3.39844-.51562-1-.93018-1.76562-1.24219-2.29688-.34473,3.6875-.62598,7.68066-.84424,11.97754-.21875,4.29785-.40625,8.63379-.5625,13.00879h-4.45312c.12451-2.8125.26514-5.64844.42188-8.50879.15576-2.85938.33545-5.67188.53906-8.4375.20264-2.7666.42188-5.46191.65625-8.08691s.49219-5.11035.77344-7.4541h3.98486c.84375,1.37598,1.74951,3.00098,2.71875,4.87598.96826,1.875,1.9375,3.83594,2.90674,5.88281.96826,2.04785,1.90576,4.09473,2.8125,6.1416.90625,2.04688,1.73438,3.91406,2.48438,5.60156.75049-1.6875,1.57812-3.55469,2.48486-5.60156.90625-2.04688,1.84375-4.09375,2.8125-6.1416.96875-2.04688,1.9375-4.00781,2.90674-5.88281.96826-1.875,1.875-3.5,2.71875-4.87598h3.98486c1.06201,10.4707,1.85889,21.2998,2.39062,32.4873h-4.45312c-.15674-4.375-.34424-8.71094-.5625-13.00879-.21924-4.29688-.50049-8.29004-.84424-11.97754-.3125.53125-.72656,1.29688-1.24219,2.29688-.51562,1.00098-1.0708,2.13281-1.66406,3.39844-.59424,1.26562-1.22705,2.61035-1.89844,4.03223-.67285,1.42188-1.30566,2.80469-1.89893,4.14844-.59375,1.34375-1.14844,2.59473-1.66406,3.75-.51562,1.15723-.93018,2.11035-1.24219,2.86035h-3.65674Z"/><path class="uuid-c97177d0-4475-40df-97b2-aee8e4f15d5b" d="M119.67133,18.99783c-.78174,0-1.4458-.25781-1.99219-.77344-.54736-.5166-.82031-1.21094-.82031-2.08691,0-.87402.27295-1.57031.82031-2.08594.54639-.51562,1.21045-.77344,1.99219-.77344.78076,0,1.44531.25781,1.99219.77344.54639.51562.82031,1.21191.82031,2.08594,0,.87598-.27393,1.57031-.82031,2.08691-.54688.51562-1.21143.77344-1.99219.77344ZM121.87445,47.78103h-4.35938v-24.37695h4.35938v24.37695Z"/><path class="uuid-c97177d0-4475-40df-97b2-aee8e4f15d5b" d="M129.37494,24.1072c.99951-.25,2.32764-.51562,3.98438-.79688,1.65625-.28125,3.56299-.42188,5.71924-.42188,1.9375,0,3.54688.27344,4.82861.82031,1.28125.54688,2.3042,1.3125,3.0708,2.29688.76514.98438,1.3042,2.16504,1.61719,3.53906.31201,1.37598.46875,2.8916.46875,4.54785v13.68848h-4.35986v-12.75098c0-1.5-.10156-2.78125-.30469-3.84375-.20361-1.0625-.53906-1.92285-1.00781-2.5791s-1.09424-1.13184-1.875-1.42969c-.78174-.29688-1.75098-.44531-2.90674-.44531-.46875,0-.95361.0166-1.45312.04688-.50049.03125-.97705.07031-1.42969.11719-.45361.04688-.85986.10156-1.21924.16406-.35938.06348-.61719.11035-.77344.14062v20.58008h-4.35938v-23.67383Z"/><path class="uuid-c97177d0-4475-40df-97b2-aee8e4f15d5b" d="M154.92279,35.63943c0-2.15625.31201-4.03906.93799-5.64941.62451-1.6084,1.45312-2.94434,2.48438-4.00781,1.03125-1.06152,2.21875-1.8584,3.56299-2.39062,1.34326-.53125,2.71875-.79688,4.125-.79688,3.28174,0,5.79688,1.02344,7.54785,3.07031,1.74951,2.04785,2.625,5.16504,2.625,9.35254v.72656c0,.29785-.01611.57031-.04688.82031h-16.68896c.1875,2.53125.92139,4.45312,2.20361,5.7666,1.28076,1.3125,3.28125,1.96875,6.00049,1.96875,1.53076,0,2.81982-.13281,3.86719-.39844,1.04688-.26562,1.83594-.52344,2.36768-.77344l.60938,3.65625c-.53174.28125-1.46143.57812-2.78955.89062-1.32861.3125-2.83594.46875-4.52393.46875-2.12549,0-3.96094-.32031-5.50781-.96094-1.54736-.64062-2.8208-1.52344-3.8208-2.64844-1.00049-1.125-1.74268-2.46094-2.22656-4.00879-.48535-1.54688-.72705-3.24121-.72705-5.08594ZM171.65863,33.2488c.03076-1.96875-.46143-3.58691-1.47656-4.85254-1.01611-1.26562-2.41406-1.89844-4.1958-1.89844-1.00049,0-1.8833.19531-2.64844.58594-.76611.3916-1.41455.89941-1.9458,1.52344-.53174.62598-.94531,1.34473-1.24219,2.15723-.29736.8125-.49219,1.64062-.58594,2.48438h12.09473Z"/><path class="uuid-c97177d0-4475-40df-97b2-aee8e4f15d5b" d="M191.48822,22.88845c.375,0,.8042.02344,1.28906.07031.48438.04688.96143.10938,1.43018.1875s.89795.15625,1.28906.23438c.39014.07812.67969.14844.86719.21094l-.75,3.79688c-.34424-.12402-.91406-.27246-1.71094-.44531-.79736-.1709-1.82129-.25781-3.0708-.25781-.81299,0-1.61719.08691-2.41406.25781-.79736.17285-1.3208.29004-1.5708.35156v20.48633h-4.35938v-23.3457c1.03125-.375,2.3125-.72656,3.84375-1.05469s3.25-.49219,5.15674-.49219Z"/><path class="uuid-c97177d0-4475-40df-97b2-aee8e4f15d5b" d="M208.45795,22.7947c1.75,0,3.22656.22656,4.43018.67969,1.20264.45312,2.17188,1.09473,2.90625,1.92188.73389.82812,1.25781,1.81348,1.57031,2.95312.3125,1.1416.46924,2.39941.46924,3.77441v15.23535c-.37549.0625-.89893.14844-1.5708.25781-.67236.10938-1.42969.21094-2.27344.30469s-1.75781.17969-2.74268.25781c-.98438.07812-1.96143.11719-2.92969.11719-1.37549,0-2.6416-.14062-3.79736-.42188-1.15625-.28125-2.15625-.72656-3-1.33594s-1.5-1.41406-1.96924-2.41406c-.46875-1-.70312-2.20312-.70312-3.61035,0-1.34277.27344-2.5.82031-3.46875.54688-.96777,1.28955-1.75,2.22705-2.34375s2.03125-1.03125,3.28125-1.3125,2.5625-.42188,3.93799-.42188c.4375,0,.89062.02344,1.35938.07031s.91406.10938,1.33643.1875c.42188.07812.78857.14844,1.10156.21094.31201.0625.53076.10938.65625.14062v-1.21875c0-.71875-.07861-1.42969-.23438-2.13281-.15674-.7041-.43799-1.32812-.84375-1.87598-.40674-.5459-.96143-.98438-1.66455-1.3125s-1.61719-.49219-2.74219-.49219c-1.43799,0-2.6958.10156-3.77393.30469-1.07812.2041-1.8833.41504-2.41406.63281l-.51562-3.60938c.5625-.25,1.5-.49219,2.8125-.72656s2.73438-.35156,4.26611-.35156ZM208.83295,44.6404c1.03125,0,1.94531-.02344,2.74219-.07031.79736-.04688,1.46094-.13281,1.99268-.25781v-7.2666c-.31299-.15625-.82031-.28809-1.52344-.39844-.70361-.10938-1.55518-.16406-2.55518-.16406-.65625,0-1.35205.04688-2.08594.14062-.73486.09375-1.40625.28906-2.01611.58594-.60938.29785-1.11768.70312-1.52344,1.21875-.40625.51562-.60938,1.19531-.60938,2.03906,0,1.56348.49951,2.64941,1.5,3.25879,1,.60938,2.35938.91406,4.07861.91406Z"/><path class="uuid-c97177d0-4475-40df-97b2-aee8e4f15d5b" d="M232.36517,48.24978c-2.68848-.0625-4.59424-.64062-5.71924-1.73438s-1.6875-2.79688-1.6875-5.11035V12.1531l4.35938-.75v29.29883c0,.71973.0625,1.31348.1875,1.78223.12451.46875.32812.84375.60938,1.125.28174.28125.65674.49219,1.12549.63281s1.04639.25781,1.73438.35156l-.60938,3.65625Z"/><path class="uuid-c97177d0-4475-40df-97b2-aee8e4f15d5b" d="M259.83588,47.78103c-.53174-1.40625-1.03125-2.78906-1.5-4.14844s-.95361-2.74316-1.45312-4.14941h-14.72021l-2.95312,8.29785h-4.73486c1.24951-3.4375,2.42139-6.61719,3.51611-9.54004,1.09326-2.92188,2.16357-5.69531,3.21094-8.32129,1.04688-2.625,2.08643-5.13281,3.11768-7.52344s2.10938-4.75879,3.23438-7.10254h4.17236c1.125,2.34375,2.20312,4.71191,3.23486,7.10254,1.03125,2.39062,2.06982,4.89844,3.11719,7.52344,1.04688,2.62598,2.1167,5.39941,3.21143,8.32129,1.09326,2.92285,2.26514,6.10254,3.51562,9.54004h-4.96924ZM255.57025,35.73318c-1.00098-2.71875-1.99268-5.35156-2.97705-7.89941-.98438-2.54688-2.0083-4.99219-3.07031-7.33594-1.09473,2.34375-2.1333,4.78906-3.11768,7.33594-.98438,2.54785-1.96143,5.18066-2.92969,7.89941h12.09473Z"/><path class="uuid-c97177d0-4475-40df-97b2-aee8e4f15d5b" d="M268.9306,24.1072c.99951-.25,2.32715-.51562,3.98438-.79688,1.65625-.28125,3.5625-.42188,5.71875-.42188,1.9375,0,3.54688.27344,4.8291.82031,1.28125.54688,2.30371,1.3125,3.07031,2.29688.76562.98438,1.30469,2.16504,1.61816,3.53906.31055,1.37598.46875,2.8916.46875,4.54785v13.68848h-4.36035v-12.75098c0-1.5-.10156-2.78125-.30469-3.84375-.2041-1.0625-.53906-1.92285-1.00781-2.5791s-1.09473-1.13184-1.875-1.42969c-.78223-.29688-1.75098-.44531-2.90723-.44531-.46875,0-.95312.0166-1.45312.04688-.5.03125-.97656.07031-1.42969.11719s-.85938.10156-1.21875.16406c-.35938.06348-.61719.11035-.77344.14062v20.58008h-4.35938v-23.67383Z"/><path class="uuid-c97177d0-4475-40df-97b2-aee8e4f15d5b" d="M301.51068,44.6404c1.78125,0,3.10156-.23438,3.96094-.70312s1.28906-1.21875,1.28906-2.25098c0-1.06152-.42188-1.90527-1.26562-2.53125-.84375-.625-2.23438-1.32812-4.17188-2.10938-.9375-.375-1.83691-.75684-2.69531-1.14844-.86035-.39062-1.60254-.85156-2.22754-1.38281s-1.125-1.17188-1.5-1.92188-.5625-1.67188-.5625-2.7666c0-2.15625.79688-3.86719,2.39062-5.13281,1.59473-1.26562,3.76562-1.89844,6.5166-1.89844.68652,0,1.375.03906,2.0625.11719s1.32812.17188,1.92188.28125,1.11719.22656,1.57031.35156.80469.23438,1.05469.32812l-.79688,3.75c-.46875-.24902-1.20312-.50684-2.20312-.77344-1-.26465-2.20312-.39844-3.60938-.39844-1.21875,0-2.28223.24219-3.1875.72656-.90723.48535-1.35938,1.24219-1.35938,2.27344,0,.53223.10059,1.00098.30469,1.40723.20215.40625.51562.77344.9375,1.10156s.94434.63281,1.57031.91406c.625.28125,1.375.57812,2.25.89062,1.15625.4375,2.1875.86719,3.09375,1.28906s1.67969.91406,2.32031,1.47656,1.13281,1.24219,1.47754,2.03906c.34277.79688.51562,1.77441.51562,2.92969,0,2.25098-.83691,3.9541-2.50879,5.11035s-4.05469,1.73438-7.14844,1.73438c-2.15625,0-3.84473-.17969-5.06348-.53906s-2.04688-.63281-2.48438-.82031l.79688-3.75c.5.1875,1.29688.46875,2.39062.84375s2.54688.5625,4.36035.5625Z"/><path class="uuid-c97177d0-4475-40df-97b2-aee8e4f15d5b" d="M336.66986,47.78103c-.875-2.25-1.80469-4.82031-2.78906-7.71191-.98438-2.88965-1.88379-5.89844-2.69531-9.02344-.81348,3.125-1.7041,6.13379-2.67285,9.02344-.96875,2.8916-1.89062,5.46191-2.76562,7.71191h-3.79688c-1.43848-3.21875-2.84473-6.8916-4.21973-11.0166s-2.67188-8.5791-3.89062-13.36035h4.6875c.3125,1.46973.6875,3.06348,1.12598,4.78125.43652,1.71973.89746,3.43848,1.38281,5.15723.4834,1.71875.99121,3.375,1.52344,4.96875.53125,1.59375,1.03125,2.98535,1.5,4.17285.53125-1.46875,1.05469-3.02441,1.57031-4.66504s1.00781-3.29688,1.47656-4.96875.91406-3.3125,1.33594-4.92285c.42188-1.60938.78906-3.11719,1.10156-4.52344h3.61035c.28125,1.40625.625,2.91406,1.03125,4.52344.40527,1.61035.84375,3.25098,1.3125,4.92285s.96094,3.32812,1.47656,4.96875,1.03906,3.19629,1.57031,4.66504c.46875-1.1875.96094-2.5791,1.47656-4.17285s1.02344-3.25,1.52344-4.96875.96875-3.4375,1.40723-5.15723c.43652-1.71777.81152-3.31152,1.125-4.78125h4.5c-1.21875,4.78125-2.51562,9.23535-3.89062,13.36035-1.37598,4.125-2.78223,7.79785-4.21973,11.0166h-3.79688Z"/><path class="uuid-c97177d0-4475-40df-97b2-aee8e4f15d5b" d="M351.81146,35.63943c0-2.15625.3125-4.03906.9375-5.64941.625-1.6084,1.45312-2.94434,2.48438-4.00781,1.03223-1.06152,2.21875-1.8584,3.56348-2.39062,1.34277-.53125,2.71875-.79688,4.125-.79688,3.28125,0,5.79688,1.02344,7.54785,3.07031,1.75,2.04785,2.625,5.16504,2.625,9.35254v.72656c0,.29785-.0166.57031-.04688.82031h-16.68848c.1875,2.53125.9209,4.45312,2.20312,5.7666,1.28125,1.3125,3.28125,1.96875,6,1.96875,1.53125,0,2.82031-.13281,3.86816-.39844,1.0459-.26562,1.83496-.52344,2.36719-.77344l.60938,3.65625c-.53223.28125-1.46191.57812-2.78906.89062-1.3291.3125-2.83691.46875-4.52441.46875-2.125,0-3.96094-.32031-5.50781-.96094s-2.82129-1.52344-3.82129-2.64844-1.74219-2.46094-2.22656-4.00879c-.48438-1.54688-.72656-3.24121-.72656-5.08594ZM368.54779,33.2488c.03027-1.96875-.46191-3.58691-1.47754-4.85254s-2.41406-1.89844-4.19531-1.89844c-1,0-1.88281.19531-2.64844.58594-.7666.3916-1.41406.89941-1.94531,1.52344-.53223.62598-.94629,1.34473-1.24219,2.15723-.29785.8125-.49219,1.64062-.58594,2.48438h12.09473Z"/><path class="uuid-c97177d0-4475-40df-97b2-aee8e4f15d5b" d="M388.37592,22.88845c.375,0,.80469.02344,1.28906.07031s.96094.10938,1.42969.1875.89844.15625,1.28906.23438.67969.14844.86719.21094l-.75,3.79688c-.34375-.12402-.91406-.27246-1.71094-.44531-.79688-.1709-1.82031-.25781-3.07031-.25781-.81348,0-1.61719.08691-2.41406.25781-.79688.17285-1.32129.29004-1.57031.35156v20.48633h-4.36035v-23.3457c1.03125-.375,2.3125-.72656,3.84473-1.05469,1.53027-.32812,3.25-.49219,5.15625-.49219Z"/><path class="uuid-c97177d0-4475-40df-97b2-aee8e4f15d5b" d="M403.14252,44.6404c1.78125,0,3.10156-.23438,3.96094-.70312s1.28906-1.21875,1.28906-2.25098c0-1.06152-.42188-1.90527-1.26562-2.53125-.84375-.625-2.23438-1.32812-4.17188-2.10938-.9375-.375-1.83691-.75684-2.69531-1.14844-.86035-.39062-1.60254-.85156-2.22754-1.38281s-1.125-1.17188-1.5-1.92188-.5625-1.67188-.5625-2.7666c0-2.15625.79688-3.86719,2.39062-5.13281,1.59473-1.26562,3.76562-1.89844,6.5166-1.89844.68652,0,1.375.03906,2.0625.11719s1.32812.17188,1.92188.28125,1.11719.22656,1.57031.35156.80469.23438,1.05469.32812l-.79688,3.75c-.46875-.24902-1.20312-.50684-2.20312-.77344-1-.26465-2.20312-.39844-3.60938-.39844-1.21875,0-2.28223.24219-3.1875.72656-.90723.48535-1.35938,1.24219-1.35938,2.27344,0,.53223.10059,1.00098.30469,1.40723.20215.40625.51562.77344.9375,1.10156s.94434.63281,1.57031.91406c.625.28125,1.375.57812,2.25.89062,1.15625.4375,2.1875.86719,3.09375,1.28906s1.67969.91406,2.32031,1.47656,1.13281,1.24219,1.47754,2.03906c.34277.79688.51562,1.77441.51562,2.92969,0,2.25098-.83691,3.9541-2.50879,5.11035s-4.05469,1.73438-7.14844,1.73438c-2.15625,0-3.84473-.17969-5.06348-.53906s-2.04688-.63281-2.48438-.82031l.79688-3.75c.5.1875,1.29688.46875,2.39062.84375s2.54688.5625,4.36035.5625Z"/><path class="uuid-c97177d0-4475-40df-97b2-aee8e4f15d5b" d="M423.53509,45.24978c0,.84375-.28125,1.57812-.84375,2.20312s-1.3291.9375-2.29785.9375-1.73438-.3125-2.29688-.9375-.84375-1.35938-.84375-2.20312.28125-1.57812.84375-2.20312,1.32812-.9375,2.29688-.9375,1.73535.3125,2.29785.9375.84375,1.35938.84375,2.20312Z"/><path class="uuid-c97177d0-4475-40df-97b2-aee8e4f15d5b" d="M440.50384,48.34353c-1.96875,0-3.69629-.3125-5.17969-.9375-1.48535-.625-2.73535-1.5-3.75098-2.625s-1.77344-2.46094-2.27344-4.00879c-.5-1.54688-.75-3.25781-.75-5.13281s.27344-3.59375.82031-5.15625,1.32031-2.91406,2.32031-4.05566c1-1.14062,2.22754-2.03125,3.68066-2.67188s3.07031-.96094,4.85156-.96094c1.09375,0,2.1875.09375,3.28125.28125s2.14062.48438,3.1416.89062l-.98438,3.70312c-.65625-.31152-1.41504-.5625-2.27441-.75s-1.77344-.28125-2.74219-.28125c-2.4375,0-4.30566.7666-5.60156,2.29688-1.29785,1.53223-1.94531,3.7666-1.94531,6.7041,0,1.3125.14746,2.51562.44531,3.60938.2959,1.09473.76465,2.03223,1.40625,2.81348.63965.78125,1.45996,1.38281,2.46094,1.80469,1,.42188,2.21875.63281,3.65625.63281,1.15625,0,2.20312-.10938,3.1416-.32812.9375-.21875,1.6709-.45312,2.20312-.70312l.60938,3.65625c-.25098.15625-.60938.30469-1.07812.44531s-1.00098.26562-1.59375.375c-.59473.10938-1.22754.20312-1.89941.28125s-1.32031.11719-1.94531.11719Z"/><path class="uuid-c97177d0-4475-40df-97b2-aee8e4f15d5b" d="M472.61713,35.59255c0,1.93848-.28125,3.68848-.84375,5.25-.5625,1.56348-1.35254,2.90723-2.36719,4.03223-1.01562,1.125-2.22656,1.99219-3.63281,2.60156-1.40723.60938-2.93848.91406-4.59473.91406s-3.1875-.30469-4.59375-.91406-2.61816-1.47656-3.63379-2.60156-1.80469-2.46875-2.36719-4.03223c-.5625-1.56152-.84375-3.31152-.84375-5.25,0-1.90625.28125-3.64844.84375-5.22656s1.35156-2.93066,2.36719-4.05566,2.22754-1.99219,3.63379-2.60156,2.9375-.91406,4.59375-.91406,3.1875.30469,4.59473.91406c1.40625.60938,2.61719,1.47656,3.63281,2.60156,1.01465,1.125,1.80469,2.47754,2.36719,4.05566s.84375,3.32031.84375,5.22656ZM468.07025,35.59255c0-2.75-.61816-4.92969-1.85156-6.54004-1.23535-1.6084-2.91504-2.41406-5.04004-2.41406-2.12598,0-3.80469.80566-5.03906,2.41406-1.23535,1.61035-1.85156,3.79004-1.85156,6.54004s.61621,4.93066,1.85156,6.54004c1.23438,1.60938,2.91309,2.41406,5.03906,2.41406,2.125,0,3.80469-.80469,5.04004-2.41406,1.2334-1.60938,1.85156-3.79004,1.85156-6.54004Z"/><path class="uuid-c97177d0-4475-40df-97b2-aee8e4f15d5b" d="M478.75775,24.1072c1-.25,2.32129-.51562,3.96191-.79688s3.53906-.42188,5.69531-.42188c1.5625,0,2.875.21094,3.9375.63281s1.95312,1.03906,2.67285,1.85156c.21777-.15625.5625-.375,1.03125-.65625s1.04688-.55469,1.73438-.82031c.68652-.26562,1.45312-.5,2.29688-.70312s1.75-.30469,2.71875-.30469c1.87598,0,3.40625.27344,4.59473.82031,1.1875.54688,2.11621,1.32031,2.78906,2.32031.67188,1.00098,1.125,2.18848,1.35938,3.5625.23438,1.37598.35156,2.87598.35156,4.50098v13.68848h-4.35938v-12.75098c0-1.4375-.07031-2.67188-.21094-3.70312s-.40723-1.89062-.79688-2.5791c-.3916-.68652-.92285-1.19531-1.59375-1.52344-.67285-.32812-1.54004-.49219-2.60254-.49219-1.46875,0-2.67969.19531-3.63281.58594-.9541.3916-1.60156.74316-1.94531,1.05469.25.81348.4375,1.7041.5625,2.67285.12402.96875.1875,1.98438.1875,3.04688v13.68848h-4.35938v-12.75098c0-1.4375-.0791-2.67188-.23438-3.70312-.15723-1.03125-.43066-1.89062-.82129-2.5791-.39062-.68652-.92188-1.19531-1.59375-1.52344s-1.52344-.49219-2.55469-.49219c-.4375,0-.90625.0166-1.40625.04688-.5.03125-.97754.07031-1.42969.11719-.45312.04688-.86719.10156-1.24219.16406-.375.06348-.62598.11035-.75.14062v20.58008h-4.36035v-23.67383Z"/><path class="uuid-38d92f51-3993-41e3-a255-ac3192d75786" d="M77.99164,67.71072c.7251,0,1.25293-.12305,1.58398-.36816.33057-.24512.49609-.5918.49609-1.04004,0-.2666-.05615-.49609-.16797-.6875-.1123-.19238-.27246-.36523-.47998-.52051-.20801-.1543-.46191-.29883-.76025-.43164-.29883-.13379-.64014-.26465-1.02393-.39258-.38428-.1377-.75488-.29004-1.1123-.45605-.35742-.16504-.67188-.37012-.94385-.61523-.27197-.24609-.49072-.53906-.65576-.88086-.16553-.34082-.24805-.75195-.24805-1.23145,0-1.00293.34619-1.78906,1.04004-2.36035.69287-.57031,1.63721-.85547,2.83203-.85547.69287,0,1.30908.07715,1.84766.23145.53857.15527.96289.32324,1.27197.50391l-.62402,1.63281c-.3623-.20312-.75977-.35742-1.19189-.46484-.43164-.10645-.87744-.15918-1.33594-.15918-.54395,0-.96777.11133-1.27197.33594-.3042.22363-.45605.53809-.45605.94336,0,.24609.05078.45605.15186.63184.10156.17676.24561.33398.43213.47266s.40527.2666.65625.38379c.25049.11719.5249.22949.82373.33594.52246.19238.98926.38672,1.3999.58398s.75732.43164,1.04004.7041.49854.5918.64795.95996.22412.81348.22412,1.33594c0,1.00293-.35449,1.7793-1.06396,2.32812-.70947.5498-1.74658.82422-3.11182.82422-.45898,0-.87744-.0293-1.25635-.08789-.37842-.05957-.71436-.13086-1.00781-.2168-.29346-.08496-.54688-.17285-.75977-.26367-.21387-.09082-.38428-.17285-.51221-.24805l.5918-1.64746c.28809.15918.67725.31934,1.16846.47949.49023.16016,1.08203.24023,1.77588.24023Z"/><path class="uuid-38d92f51-3993-41e3-a255-ac3192d75786" d="M83.38324,65.07107c0-.73633.10938-1.38184.32812-1.93652.21826-.55469.50928-1.01562.87158-1.38379.36279-.36816.77881-.64551,1.24805-.83203s.94922-.28027,1.43994-.28027c1.15234,0,2.05078.35742,2.69629,1.07227.64502.71484.96777,1.78125.96777,3.2002,0,.10645-.00244.22656-.00781.35938-.00537.13379-.01367.25391-.02393.36035h-5.52002c.05322.67188.29053,1.19238.71191,1.55957.42139.36816,1.03223.55273,1.83203.55273.46924,0,.89844-.04297,1.28809-.12793.38916-.08594.6958-.17676.91992-.27246l.25586,1.58398c-.10645.05371-.25342.10938-.43994.16797s-.3999.1123-.64014.16016c-.23975.04785-.49854.08789-.77588.12012s-.56006.04785-.84814.04785c-.73584,0-1.37598-.10938-1.91992-.32812s-.9917-.52246-1.34375-.91211c-.35205-.38867-.61377-.84766-.78418-1.37598-.1709-.52734-.25586-1.10645-.25586-1.73535ZM88.99896,64.20681c0-.2666-.03711-.52051-.11182-.75977-.07471-.24023-.18408-.44824-.32812-.62402-.14404-.17676-.31982-.31445-.52783-.41602s-.45605-.15234-.74414-.15234c-.29883,0-.56006.05566-.78369.16797-.22412.1123-.41357.25879-.56836.44043-.15479.18066-.27441.38867-.35986.62402-.08545.23438-.14404.47461-.17578.71973h3.59961Z"/><path class="uuid-38d92f51-3993-41e3-a255-ac3192d75786" d="M92.51947,65.03884c0-.61914.0957-1.19727.28809-1.73633.19189-.53809.46631-1.00488.82373-1.39941s.79199-.7041,1.3042-.92871c.51172-.22363,1.08789-.33594,1.72803-.33594.78906,0,1.53613.14453,2.23975.43262l-.41602,1.58398c-.22363-.09668-.47754-.17676-.75977-.24023-.28271-.06445-.58398-.09668-.9043-.09668-.75732,0-1.3335.23828-1.72754.71289-.39502.47461-.59229,1.14355-.59229,2.00781,0,.83203.18652,1.49023.56006,1.97559.37305.48535,1.00244.72852,1.88818.72852.33008,0,.65576-.03223.97559-.09668.32031-.06348.59766-.14355.83203-.23926l.27197,1.59961c-.21338.10645-.53564.20312-.96777.28809s-.87744.12793-1.33594.12793c-.71484,0-1.33594-.10938-1.86426-.32812-.52783-.21875-.96533-.52246-1.31201-.91211-.34668-.38867-.60547-.85254-.77588-1.3916-.1709-.53906-.25586-1.12305-.25586-1.75195Z"/><path class="uuid-38d92f51-3993-41e3-a255-ac3192d75786" d="M107.39935,68.95876c-.37354.0957-.85889.19434-1.45605.2959-.59766.10156-1.25342.15234-1.96826.15234-.67188,0-1.23486-.09668-1.68799-.28809-.45361-.19238-.81592-.45898-1.08789-.80078-.27197-.34082-.4668-.74902-.58398-1.22363-.11768-.47461-.17578-.99414-.17578-1.55957v-4.68848h1.93555v4.38379c0,.89648.13086,1.53613.39209,1.91992.26123.38477.71729.57617,1.36816.57617.23438,0,.48242-.00977.74414-.03125.26123-.02148.45605-.04883.58398-.08008v-6.76855h1.93604v8.1123Z"/><path class="uuid-38d92f51-3993-41e3-a255-ac3192d75786" d="M114.6308,62.5906c-.16016-.05371-.38135-.10938-.66406-.16797s-.61084-.08789-.98389-.08789c-.21338,0-.43994.02148-.68018.06348-.23975.04297-.40771.08008-.50391.1123v6.7041h-1.93604v-7.96777c.37354-.13867.83984-.26953,1.3999-.39258.56006-.12207,1.18164-.18359,1.86426-.18359.12793,0,.27734.00781.44775.02441.17041.01562.34131.03711.51221.06348.17041.02637.33594.05859.49609.0957.15967.03809.28809.07227.38379.10449l-.33594,1.63184Z"/><path class="uuid-38d92f51-3993-41e3-a255-ac3192d75786" d="M115.84711,65.07107c0-.73633.10938-1.38184.32812-1.93652.21826-.55469.50928-1.01562.87158-1.38379.36279-.36816.77881-.64551,1.24805-.83203s.94922-.28027,1.43994-.28027c1.15234,0,2.05078.35742,2.69629,1.07227.64502.71484.96777,1.78125.96777,3.2002,0,.10645-.00244.22656-.00781.35938-.00537.13379-.01367.25391-.02393.36035h-5.52002c.05322.67188.29053,1.19238.71191,1.55957.42139.36816,1.03223.55273,1.83203.55273.46924,0,.89844-.04297,1.28809-.12793.38916-.08594.6958-.17676.91992-.27246l.25586,1.58398c-.10645.05371-.25342.10938-.43994.16797s-.3999.1123-.64014.16016c-.23975.04785-.49854.08789-.77588.12012s-.56006.04785-.84814.04785c-.73584,0-1.37598-.10938-1.91992-.32812s-.9917-.52246-1.34375-.91211c-.35205-.38867-.61377-.84766-.78418-1.37598-.1709-.52734-.25586-1.10645-.25586-1.73535ZM121.46283,64.20681c0-.2666-.03711-.52051-.11182-.75977-.07471-.24023-.18408-.44824-.32812-.62402-.14404-.17676-.31982-.31445-.52783-.41602s-.45605-.15234-.74414-.15234c-.29883,0-.56006.05566-.78369.16797-.22412.1123-.41357.25879-.56836.44043-.15479.18066-.27441.38867-.35986.62402-.08545.23438-.14404.47461-.17578.71973h3.59961Z"/><path class="uuid-38d92f51-3993-41e3-a255-ac3192d75786" d="M132.40668,58.01443c1.61084,0,2.84521.29395,3.7041.87988.8584.58691,1.28809,1.50391,1.28809,2.75195,0,.65137-.11475,1.20801-.34424,1.67188-.22949.46484-.5625.84277-1,1.13672-.4375.29297-.9707.50879-1.59961.64746-.62988.13867-1.34961.20801-2.16016.20801h-1.00781v3.9043h-2.01611v-10.92773c.46924-.10645.98926-.17871,1.56006-.21582.57031-.03809,1.0957-.05664,1.57568-.05664ZM132.55072,59.75857c-.51172,0-.93359.01562-1.26367.04785v3.77637h.97559c.9707,0,1.71729-.13574,2.24023-.4082.52246-.27148.78418-.78613.78418-1.54395,0-.3623-.06982-.66699-.20801-.91211-.13916-.24512-.33105-.4375-.57617-.57617-.24561-.13867-.53613-.2373-.87207-.2959s-.6958-.08789-1.08008-.08789Z"/><path class="uuid-38d92f51-3993-41e3-a255-ac3192d75786" d="M141.65472,60.63845c.63965,0,1.17822.08008,1.61572.24023s.78662.38379,1.04834.67188c.26123.28809.44775.6377.56006,1.04785.11182.41113.16797.86133.16797,1.35254v5.07129c-.29883.06445-.74951.1416-1.35205.23242-.60303.09082-1.28271.13574-2.04004.13574-.50146,0-.95996-.04785-1.37598-.14355-.41602-.09668-.771-.25098-1.06396-.46387-.29346-.21387-.52295-.49121-.68799-.83203-.16553-.3418-.24805-.7627-.24805-1.26465,0-.47949.09326-.88477.27979-1.21582.18652-.33008.43994-.59961.76025-.80762.31982-.20801.69043-.35742,1.11182-.44824s.86133-.13574,1.31982-.13574c.21338,0,.4375.01367.67236.04004.23438.02637.48486.07129.75195.13574v-.32031c0-.22363-.02686-.43652-.08008-.63965-.05371-.20215-.14697-.38086-.28027-.53613-.1333-.1543-.30908-.27441-.52783-.36035-.21875-.08496-.49365-.12793-.82373-.12793-.44824,0-.85889.03223-1.23242.09668-.37354.06348-.67725.13867-.91162.22363l-.24023-1.56836c.24512-.08496.60254-.16992,1.07227-.25586.46924-.08496.97021-.12793,1.50391-.12793ZM141.81439,67.85427c.59766,0,1.05078-.03125,1.36035-.0957v-2.14355c-.10693-.03223-.26172-.06445-.46436-.09668-.20264-.03125-.42676-.04785-.67188-.04785-.21338,0-.4292.0166-.64795.04785-.21875.03223-.41602.09082-.5918.17676-.17627.08496-.31787.20508-.42432.35938-.10645.15527-.15967.34961-.15967.58398,0,.45898.14404.77637.43164.95215.28809.17578.67725.26367,1.16797.26367Z"/><path class="uuid-38d92f51-3993-41e3-a255-ac3192d75786" d="M154.03851,60.84646c-.8623,3.17871-1.86328,6.05859-3.00244,8.64062-.21338.47949-.43262.88965-.65674,1.23145s-.4751.62402-.75293.84766c-.27783.22461-.5874.38672-.92871.48828-.3418.10156-.73682.15234-1.18555.15234-.29883,0-.59521-.03223-.88867-.0957-.29395-.06445-.51562-.13379-.66504-.20801l.35205-1.55273c.38574.14941.76611.22461,1.14111.22461.50391,0,.89746-.12012,1.18164-.36035.28369-.24023.53271-.61035.74707-1.1123-.61035-1.17285-1.19678-2.45312-1.75928-3.83984s-1.06348-2.8584-1.50244-4.41602h2.06396c.10693.44824.23779.93359.39355,1.45605.15527.52246.32373,1.05371.50586,1.5918.18213.53906.37451,1.0752.57812,1.6084s.40674,1.0293.61035,1.48828c.33984-.94922.6582-1.95996.95605-3.03223.29688-1.07227.56787-2.10938.81201-3.1123h2Z"/><path class="uuid-38d92f51-3993-41e3-a255-ac3192d75786" d="M160.27875,64.81423c0-.87402-.10938-1.50586-.32812-1.89551s-.62646-.58398-1.22363-.58398c-.21387,0-.44824.01562-.7041.04785-.25635.03223-.44824.05859-.57617.08008v6.75195h-1.93604v-8.0957c.37354-.10645.86133-.20801,1.46387-.30469.60254-.0957,1.24023-.14355,1.91211-.14355.57617,0,1.04785.07422,1.41602.22363s.6748.34668.91992.59277c.11719-.08594.2666-.17676.44824-.27246.18115-.0957.38379-.18359.60791-.26367s.46143-.14648.71191-.2002.50391-.08008.76025-.08008c.65039,0,1.18652.09375,1.60791.28027s.75195.44727.9917.7832c.24023.33691.40527.74219.49609,1.2168s.13623.99414.13623,1.55957v4.7041h-1.93604v-4.40039c0-.87402-.10693-1.50586-.31982-1.89551-.21387-.38965-.62402-.58398-1.23242-.58398-.30908,0-.60254.05078-.87988.15234-.27734.10059-.48535.19922-.62402.2959.08545.2666.14404.54883.17627.84766.03174.29883.04785.61914.04785.95996v4.62402h-1.93604v-4.40039Z"/><path class="uuid-38d92f51-3993-41e3-a255-ac3192d75786" d="M168.88666,65.07107c0-.73633.10938-1.38184.32812-1.93652.21826-.55469.50928-1.01562.87158-1.38379.36279-.36816.77881-.64551,1.24805-.83203s.94922-.28027,1.43994-.28027c1.15234,0,2.05078.35742,2.69629,1.07227.64502.71484.96777,1.78125.96777,3.2002,0,.10645-.00244.22656-.00781.35938-.00537.13379-.01367.25391-.02393.36035h-5.52002c.05322.67188.29053,1.19238.71191,1.55957.42139.36816,1.03223.55273,1.83203.55273.46924,0,.89844-.04297,1.28809-.12793.38916-.08594.6958-.17676.91992-.27246l.25586,1.58398c-.10645.05371-.25342.10938-.43994.16797s-.3999.1123-.64014.16016c-.23975.04785-.49854.08789-.77588.12012s-.56006.04785-.84814.04785c-.73584,0-1.37598-.10938-1.91992-.32812s-.9917-.52246-1.34375-.91211c-.35205-.38867-.61377-.84766-.78418-1.37598-.1709-.52734-.25586-1.10645-.25586-1.73535ZM174.50238,64.20681c0-.2666-.03711-.52051-.11182-.75977-.07471-.24023-.18408-.44824-.32812-.62402-.14404-.17676-.31982-.31445-.52783-.41602s-.45605-.15234-.74414-.15234c-.29883,0-.56006.05566-.78369.16797-.22412.1123-.41357.25879-.56836.44043-.15479.18066-.27441.38867-.35986.62402-.08545.23438-.14404.47461-.17578.71973h3.59961Z"/><path class="uuid-38d92f51-3993-41e3-a255-ac3192d75786" d="M178.48675,61.11892c.37354-.10645.8584-.20801,1.45605-.30469.59717-.0957,1.2583-.14355,1.98389-.14355.68262,0,1.25342.09375,1.71191.28027s.82422.44727,1.09619.7832c.27197.33691.46387.74219.57617,1.2168.11182.47461.16797.99414.16797,1.55957v4.7041h-1.93604v-4.40039c0-.44727-.02979-.8291-.08789-1.14355-.05908-.31445-.15479-.57031-.28809-.76758-.13379-.19727-.31494-.3418-.54395-.43262-.22949-.09082-.50977-.13574-.84033-.13574-.24512,0-.50146.01562-.76807.04785s-.46387.05859-.5918.08008v6.75195h-1.93604v-8.0957Z"/><path class="uuid-38d92f51-3993-41e3-a255-ac3192d75786" d="M187.75043,58.63845l1.93555-.32031v2.52832h2.97607v1.61621h-2.97607v3.4082c0,.67188.10693,1.15137.32031,1.43945s.57568.43262,1.08789.43262c.35205,0,.66406-.03711.93604-.1123.27197-.07422.48779-.14355.64795-.20801l.31982,1.53613c-.22363.0957-.51709.19434-.87988.2959s-.78955.15234-1.27979.15234c-.59766,0-1.09619-.08008-1.49609-.24023s-.71729-.39258-.95215-.69629-.3999-.67188-.49609-1.10352c-.0957-.43262-.14355-.92578-.14355-1.48047v-7.24805Z"/><path class="uuid-38d92f51-3993-41e3-a255-ac3192d75786" d="M201.04633,67.71072c.7251,0,1.25293-.12305,1.58398-.36816.33057-.24512.49609-.5918.49609-1.04004,0-.2666-.05615-.49609-.16797-.6875-.1123-.19238-.27246-.36523-.47998-.52051-.20801-.1543-.46191-.29883-.76025-.43164-.29883-.13379-.64014-.26465-1.02393-.39258-.38428-.1377-.75488-.29004-1.1123-.45605-.35742-.16504-.67188-.37012-.94385-.61523-.27197-.24609-.49072-.53906-.65576-.88086-.16553-.34082-.24805-.75195-.24805-1.23145,0-1.00293.34619-1.78906,1.04004-2.36035.69287-.57031,1.63721-.85547,2.83203-.85547.69287,0,1.30908.07715,1.84766.23145.53857.15527.96289.32324,1.27197.50391l-.62402,1.63281c-.3623-.20312-.75977-.35742-1.19189-.46484-.43164-.10645-.87744-.15918-1.33594-.15918-.54395,0-.96777.11133-1.27197.33594-.3042.22363-.45605.53809-.45605.94336,0,.24609.05078.45605.15186.63184.10156.17676.24561.33398.43213.47266s.40527.2666.65625.38379c.25049.11719.5249.22949.82373.33594.52246.19238.98926.38672,1.3999.58398s.75732.43164,1.04004.7041.49854.5918.64795.95996.22412.81348.22412,1.33594c0,1.00293-.35449,1.7793-1.06396,2.32812-.70947.5498-1.74658.82422-3.11182.82422-.45898,0-.87744-.0293-1.25635-.08789-.37842-.05957-.71436-.13086-1.00781-.2168-.29346-.08496-.54688-.17285-.75977-.26367-.21387-.09082-.38428-.17285-.51221-.24805l.5918-1.64746c.28809.15918.67725.31934,1.16846.47949.49023.16016,1.08203.24023,1.77588.24023Z"/><path class="uuid-38d92f51-3993-41e3-a255-ac3192d75786" d="M214.46967,65.02224c0,.66211-.0957,1.26465-.2876,1.80859-.19238.54395-.46436,1.00781-.81641,1.3916-.35156.38379-.77588.68262-1.27197.89648-.49561.21289-1.04248.31934-1.63965.31934-.59766,0-1.1416-.10645-1.63232-.31934-.49072-.21387-.91162-.5127-1.26367-.89648s-.62695-.84766-.82422-1.3916-.2959-1.14648-.2959-1.80859c0-.66113.09863-1.26074.2959-1.7998.19727-.53809.47461-1,.83203-1.38379s.78125-.67969,1.27197-.8877,1.0293-.3125,1.61621-.3125c.58643,0,1.12793.10449,1.62402.3125.49561.20801.91992.50391,1.27197.8877s.62646.8457.82373,1.38379c.19727.53906.2959,1.13867.2959,1.7998ZM212.48578,65.02224c0-.83203-.17871-1.49023-.53613-1.97559s-.85596-.72852-1.49561-.72852c-.64014,0-1.13916.24316-1.49609.72852-.35742.48535-.53613,1.14355-.53613,1.97559,0,.84277.17871,1.50977.53613,2,.35693.49121.85596.73633,1.49609.73633.63965,0,1.13818-.24512,1.49561-.73633.35742-.49023.53613-1.15723.53613-2Z"/><path class="uuid-38d92f51-3993-41e3-a255-ac3192d75786" d="M219.38226,69.37478c-.57617-.01074-1.05371-.0752-1.43213-.19238-.37891-.11719-.67969-.28516-.90381-.50391s-.38184-.49023-.47217-.81543c-.09082-.32617-.13574-.69629-.13574-1.1123v-9.63184l1.93604-.32031v9.58398c0,.23438.01807.43164.05566.5918s.104.2959.2002.4082c.0957.1123.22656.19727.39209.25586.16504.05859.37598.10449.63184.13574l-.27197,1.60059Z"/><path class="uuid-38d92f51-3993-41e3-a255-ac3192d75786" d="M228.08636,68.95876c-.37354.0957-.85889.19434-1.45605.2959-.59766.10156-1.25342.15234-1.96826.15234-.67188,0-1.23486-.09668-1.68799-.28809-.45361-.19238-.81592-.45898-1.08789-.80078-.27197-.34082-.4668-.74902-.58398-1.22363-.11768-.47461-.17578-.99414-.17578-1.55957v-4.68848h1.93555v4.38379c0,.89648.13086,1.53613.39209,1.91992.26123.38477.71729.57617,1.36816.57617.23438,0,.48242-.00977.74414-.03125.26123-.02148.45605-.04883.58398-.08008v-6.76855h1.93604v8.1123Z"/><path class="uuid-38d92f51-3993-41e3-a255-ac3192d75786" d="M230.45404,58.63845l1.93555-.32031v2.52832h2.97607v1.61621h-2.97607v3.4082c0,.67188.10693,1.15137.32031,1.43945s.57568.43262,1.08789.43262c.35205,0,.66406-.03711.93604-.1123.27197-.07422.48779-.14355.64795-.20801l.31982,1.53613c-.22363.0957-.51709.19434-.87988.2959s-.78955.15234-1.27979.15234c-.59766,0-1.09619-.08008-1.49609-.24023s-.71729-.39258-.95215-.69629-.3999-.67188-.49609-1.10352c-.0957-.43262-.14355-.92578-.14355-1.48047v-7.24805Z"/><path class="uuid-38d92f51-3993-41e3-a255-ac3192d75786" d="M239.39789,58.39822c0,.36328-.11768.65137-.35205.86426-.23486.21387-.51221.32031-.83203.32031-.33057,0-.61328-.10645-.84814-.32031-.23438-.21289-.35205-.50098-.35205-.86426,0-.37305.11768-.66602.35205-.87988.23486-.21289.51758-.31934.84814-.31934.31982,0,.59717.10645.83203.31934.23438.21387.35205.50684.35205.87988ZM239.18988,69.21462h-1.93604v-8.36816h1.93604v8.36816Z"/><path class="uuid-38d92f51-3993-41e3-a255-ac3192d75786" d="M249.22162,65.02224c0,.66211-.0957,1.26465-.2876,1.80859-.19238.54395-.46436,1.00781-.81641,1.3916-.35156.38379-.77588.68262-1.27197.89648-.49561.21289-1.04248.31934-1.63965.31934-.59766,0-1.1416-.10645-1.63232-.31934-.49072-.21387-.91162-.5127-1.26367-.89648s-.62695-.84766-.82422-1.3916-.2959-1.14648-.2959-1.80859c0-.66113.09863-1.26074.2959-1.7998.19727-.53809.47461-1,.83203-1.38379s.78125-.67969,1.27197-.8877,1.0293-.3125,1.61621-.3125c.58643,0,1.12793.10449,1.62402.3125.49561.20801.91992.50391,1.27197.8877s.62646.8457.82373,1.38379c.19727.53906.2959,1.13867.2959,1.7998ZM247.23773,65.02224c0-.83203-.17871-1.49023-.53613-1.97559s-.85596-.72852-1.49561-.72852c-.64014,0-1.13916.24316-1.49609.72852-.35742.48535-.53613,1.14355-.53613,1.97559,0,.84277.17871,1.50977.53613,2,.35693.49121.85596.73633,1.49609.73633.63965,0,1.13818-.24512,1.49561-.73633.35742-.49023.53613-1.15723.53613-2Z"/><path class="uuid-38d92f51-3993-41e3-a255-ac3192d75786" d="M251.22113,61.11892c.37354-.10645.8584-.20801,1.45605-.30469.59717-.0957,1.2583-.14355,1.98389-.14355.68262,0,1.25342.09375,1.71191.28027s.82422.44727,1.09619.7832c.27197.33691.46387.74219.57617,1.2168.11182.47461.16797.99414.16797,1.55957v4.7041h-1.93604v-4.40039c0-.44727-.02979-.8291-.08789-1.14355-.05908-.31445-.15479-.57031-.28809-.76758-.13379-.19727-.31494-.3418-.54395-.43262-.22949-.09082-.50977-.13574-.84033-.13574-.24512,0-.50146.01562-.76807.04785s-.46387.05859-.5918.08008v6.75195h-1.93604v-8.0957Z"/><path class="uuid-38d92f51-3993-41e3-a255-ac3192d75786" d="M262.67767,67.82302c.51172,0,.88525-.06152,1.12012-.18457.23438-.12207.35156-.33301.35156-.63184,0-.27734-.12549-.50684-.37598-.68848-.25049-.18066-.66406-.37793-1.23975-.5918-.35205-.12793-.6748-.26367-.96826-.4082-.29346-.14355-.54639-.31152-.75977-.50391-.21338-.19141-.38135-.42383-.50391-.69531-.12305-.27246-.18408-.60547-.18408-1,0-.76855.28223-1.37402.84814-1.81641.56494-.44238,1.33301-.66406,2.30371-.66406.49072,0,.95996.0459,1.4082.13574.44775.09082.78369.17871,1.00781.26465l-.35205,1.56738c-.21338-.0957-.48535-.18359-.81592-.26367s-.71484-.12012-1.15186-.12012c-.39502,0-.71484.06738-.95996.2002-.24561.13379-.36816.33887-.36816.61621,0,.13867.02393.26172.07178.36816.04834.10645.13086.20508.24805.2959.11768.09082.27197.18164.46436.27148.19189.09082.42627.18457.70361.28027.4585.1709.84814.33887,1.16846.50391.31982.16602.58398.35254.79199.55957.20801.20801.35986.44629.45557.71289.09619.2666.14404.58594.14404.95996,0,.7998-.2959,1.40527-.8877,1.81543-.59229.41113-1.4375.61621-2.53613.61621-.73584,0-1.32812-.06152-1.77588-.18359-.44824-.12305-.7627-.22168-.94434-.29688l.33643-1.61523c.2876.11719.63184.22949,1.03174.33594s.85596.16016,1.36816.16016Z"/><path class="uuid-38d92f51-3993-41e3-a255-ac3192d75786" d="M271.71674,69.21462v-11.08789h7.00781v1.71191h-4.99219v2.83203h4.43262v1.71191h-4.43262v4.83203h-2.01562Z"/><path class="uuid-38d92f51-3993-41e3-a255-ac3192d75786" d="M287.81244,65.02224c0,.66211-.0957,1.26465-.28809,1.80859-.19141.54395-.46387,1.00781-.81543,1.3916-.35254.38379-.77637.68262-1.27246.89648-.49609.21289-1.04297.31934-1.63965.31934-.59766,0-1.1416-.10645-1.63184-.31934-.49121-.21387-.91211-.5127-1.26465-.89648-.35156-.38379-.62598-.84766-.82324-1.3916-.19824-.54395-.29688-1.14648-.29688-1.80859,0-.66113.09863-1.26074.29688-1.7998.19727-.53809.47363-1,.83203-1.38379.35645-.38379.78125-.67969,1.27148-.8877s1.0293-.3125,1.61621-.3125c.58594,0,1.12793.10449,1.62402.3125s.91992.50391,1.27148.8877c.35254.38379.62695.8457.82422,1.38379.19727.53906.2959,1.13867.2959,1.7998ZM285.82904,65.02224c0-.83203-.17871-1.49023-.53613-1.97559s-.85645-.72852-1.49609-.72852c-.64062,0-1.13867.24316-1.49609.72852s-.53613,1.14355-.53613,1.97559c0,.84277.17871,1.50977.53613,2,.35742.49121.85547.73633,1.49609.73633.63965,0,1.13867-.24512,1.49609-.73633.35742-.49023.53613-1.15723.53613-2Z"/><path class="uuid-38d92f51-3993-41e3-a255-ac3192d75786" d="M294.58099,62.5906c-.16016-.05371-.38184-.10938-.66406-.16797s-.61035-.08789-.98438-.08789c-.21289,0-.43945.02148-.67969.06348-.24023.04297-.4082.08008-.50391.1123v6.7041h-1.93555v-7.96777c.37305-.13867.83984-.26953,1.39941-.39258.56055-.12207,1.18164-.18359,1.86426-.18359.12793,0,.27734.00781.44824.02441.16992.01562.34082.03711.51172.06348s.33594.05859.49609.0957c.16016.03809.28809.07227.38379.10449l-.33594,1.63184Z"/><path class="uuid-38d92f51-3993-41e3-a255-ac3192d75786" d="M307.81244,58.12673v1.74414h-3.40723v9.34375h-2.03223v-9.34375h-3.4082v-1.74414h8.84766Z"/><path class="uuid-38d92f51-3993-41e3-a255-ac3192d75786" d="M309.25287,69.21462v-12.0957l1.93555-.32031v4.14355c.21289-.07422.46094-.1377.74414-.19141.28223-.05371.5625-.08008.83984-.08008.67188,0,1.22949.09375,1.67188.28027s.79785.44727,1.06445.7832c.2666.33691.45605.73926.56738,1.20801.1123.46973.16797.99219.16797,1.56836v4.7041h-1.93555v-4.40039c0-.44727-.0293-.8291-.08789-1.14355s-.15527-.57031-.28809-.76758c-.13379-.19727-.3125-.3418-.53613-.43262s-.50195-.13574-.83203-.13574c-.25586,0-.51758.02637-.78418.08008s-.46387.10156-.5918.14355v6.65625h-1.93555Z"/><path class="uuid-38d92f51-3993-41e3-a255-ac3192d75786" d="M318.09955,65.07107c0-.73633.10938-1.38184.32812-1.93652s.50977-1.01562.87207-1.38379.77832-.64551,1.24805-.83203.94922-.28027,1.44043-.28027c1.15137,0,2.0498.35742,2.69531,1.07227s.96875,1.78125.96875,3.2002c0,.10645-.00293.22656-.00879.35938-.00488.13379-.0127.25391-.02344.36035h-5.52051c.05371.67188.29102,1.19238.71289,1.55957.4209.36816,1.03125.55273,1.83105.55273.46973,0,.89941-.04297,1.28809-.12793.38965-.08594.69629-.17676.91992-.27246l.25684,1.58398c-.10742.05371-.25391.10938-.44043.16797s-.40039.1123-.63965.16016c-.24023.04785-.49902.08789-.77637.12012s-.55957.04785-.84766.04785c-.73633,0-1.37598-.10938-1.91992-.32812s-.99219-.52246-1.34473-.91211c-.35156-.38867-.61328-.84766-.7832-1.37598-.1709-.52734-.25684-1.10645-.25684-1.73535ZM323.71576,64.20681c0-.2666-.03711-.52051-.11133-.75977-.0752-.24023-.18457-.44824-.32812-.62402-.14453-.17676-.32031-.31445-.52832-.41602s-.45605-.15234-.74414-.15234c-.29883,0-.55957.05566-.78418.16797-.22363.1123-.41309.25879-.56738.44043-.15527.18066-.27539.38867-.36035.62402-.08594.23438-.14355.47461-.17578.71973h3.59961Z"/><path class="uuid-38d92f51-3993-41e3-a255-ac3192d75786" d="M331.52435,69.21462v-11.08789h7.12012v1.71191h-5.10449v2.73633h4.54395v1.67969h-4.54395v3.24805h5.48828v1.71191h-7.50391Z"/><path class="uuid-38d92f51-3993-41e3-a255-ac3192d75786" d="M340.80463,61.11892c.37305-.10645.8584-.20801,1.45605-.30469.59668-.0957,1.25781-.14355,1.9834-.14355.68262,0,1.25293.09375,1.71191.28027s.82422.44727,1.09668.7832c.27148.33691.46387.74219.5752,1.2168.1123.47461.16797.99414.16797,1.55957v4.7041h-1.93555v-4.40039c0-.44727-.0293-.8291-.08789-1.14355s-.15527-.57031-.28809-.76758c-.13379-.19727-.31445-.3418-.54395-.43262s-.50977-.13574-.83984-.13574c-.24609,0-.50195.01562-.76855.04785s-.46387.05859-.5918.08008v6.75195h-1.93555v-8.0957Z"/><path class="uuid-38d92f51-3993-41e3-a255-ac3192d75786" d="M349.69916,65.07107c0-.73633.10938-1.38184.32812-1.93652s.50977-1.01562.87207-1.38379.77832-.64551,1.24805-.83203.94922-.28027,1.44043-.28027c1.15137,0,2.0498.35742,2.69531,1.07227s.96875,1.78125.96875,3.2002c0,.10645-.00293.22656-.00879.35938-.00488.13379-.0127.25391-.02344.36035h-5.52051c.05371.67188.29102,1.19238.71289,1.55957.4209.36816,1.03125.55273,1.83105.55273.46973,0,.89941-.04297,1.28809-.12793.38965-.08594.69629-.17676.91992-.27246l.25684,1.58398c-.10742.05371-.25391.10938-.44043.16797s-.40039.1123-.63965.16016c-.24023.04785-.49902.08789-.77637.12012s-.55957.04785-.84766.04785c-.73633,0-1.37598-.10938-1.91992-.32812s-.99219-.52246-1.34473-.91211c-.35156-.38867-.61328-.84766-.7832-1.37598-.1709-.52734-.25684-1.10645-.25684-1.73535ZM355.31537,64.20681c0-.2666-.03711-.52051-.11133-.75977-.0752-.24023-.18457-.44824-.32812-.62402-.14453-.17676-.32031-.31445-.52832-.41602s-.45605-.15234-.74414-.15234c-.29883,0-.55957.05566-.78418.16797-.22363.1123-.41309.25879-.56738.44043-.15527.18066-.27539.38867-.36035.62402-.08594.23438-.14355.47461-.17578.71973h3.59961Z"/><path class="uuid-38d92f51-3993-41e3-a255-ac3192d75786" d="M364.06732,62.5906c-.16016-.05371-.38184-.10938-.66406-.16797s-.61035-.08789-.98438-.08789c-.21289,0-.43945.02148-.67969.06348-.24023.04297-.4082.08008-.50391.1123v6.7041h-1.93555v-7.96777c.37305-.13867.83984-.26953,1.39941-.39258.56055-.12207,1.18164-.18359,1.86426-.18359.12793,0,.27734.00781.44824.02441.16992.01562.34082.03711.51172.06348s.33594.05859.49609.0957c.16016.03809.28809.07227.38379.10449l-.33594,1.63184Z"/><path class="uuid-38d92f51-3993-41e3-a255-ac3192d75786" d="M372.65912,68.36697c0,1.33301-.33789,2.30859-1.01562,2.92773-.67773.61816-1.71484.92773-3.1123.92773-.51172,0-1.01074-.04297-1.49609-.12793s-.9248-.19727-1.31934-.33594l.35156-1.64746c.33105.1377.70703.25,1.12793.33594.42188.08496.87793.12793,1.36816.12793.77832,0,1.33301-.16016,1.66406-.48047s.49609-.79492.49609-1.42383v-.32031c-.19238.09668-.44531.19238-.75977.28809-.31543.0957-.6748.14453-1.08008.14453-.5332,0-1.02148-.08594-1.46387-.25684-.44336-.16992-.82227-.4209-1.13672-.75195-.31445-.33008-.55957-.74316-.73535-1.23926s-.26465-1.06934-.26465-1.7207c0-.60742.09375-1.16797.28027-1.67969s.45898-.94922.81641-1.31152c.35742-.36328.79199-.64551,1.30371-.84863.51172-.20215,1.09375-.30371,1.74414-.30371.62891,0,1.22656.04785,1.79199.14355.56543.09668,1.04492.19824,1.43945.30469v7.24805ZM367.26752,64.81423c0,.82227.17871,1.42188.53613,1.80078.35742.37793.81836.56738,1.38379.56738.30957,0,.60059-.04199.87207-.12793.27246-.08496.49316-.18652.66406-.30371v-4.33594c-.13867-.03223-.30957-.06152-.51172-.08789-.20312-.02637-.45898-.04004-.76855-.04004-.7041,0-1.24219.23145-1.61621.69531-.37305.46484-.55957,1.0752-.55957,1.83203Z"/><path class="uuid-38d92f51-3993-41e3-a255-ac3192d75786" d="M381.95599,60.84646c-.86328,3.17871-1.86426,6.05859-3.00293,8.64062-.21387.47949-.43262.88965-.65723,1.23145-.22363.3418-.47461.62402-.75195.84766-.27832.22461-.58789.38672-.92969.48828s-.73633.15234-1.18457.15234c-.2998,0-.5957-.03223-.88965-.0957-.29297-.06445-.51465-.13379-.66406-.20801l.35156-1.55273c.38574.14941.7666.22461,1.1416.22461.50293,0,.89648-.12012,1.18066-.36035s.5332-.61035.74805-1.1123c-.61133-1.17285-1.19727-2.45312-1.75977-3.83984s-1.06348-2.8584-1.50293-4.41602h2.06445c.10742.44824.23828.93359.39355,1.45605s.32422,1.05371.50586,1.5918c.18164.53906.375,1.0752.57812,1.6084s.40723,1.0293.61035,1.48828c.33984-.94922.6582-1.95996.95605-3.03223.29688-1.07227.56738-2.10938.8125-3.1123h2Z"/><path class="uuid-38d92f51-3993-41e3-a255-ac3192d75786" d="M387.25189,58.12673h2.01562v11.08789h-2.01562v-11.08789Z"/><path class="uuid-38d92f51-3993-41e3-a255-ac3192d75786" d="M391.82806,61.11892c.37305-.10645.8584-.20801,1.45605-.30469.59668-.0957,1.25781-.14355,1.9834-.14355.68262,0,1.25293.09375,1.71191.28027s.82422.44727,1.09668.7832c.27148.33691.46387.74219.5752,1.2168.1123.47461.16797.99414.16797,1.55957v4.7041h-1.93555v-4.40039c0-.44727-.0293-.8291-.08789-1.14355s-.15527-.57031-.28809-.76758c-.13379-.19727-.31445-.3418-.54395-.43262s-.50977-.13574-.83984-.13574c-.24609,0-.50195.01562-.76855.04785s-.46387.05859-.5918.08008v6.75195h-1.93555v-8.0957Z"/><path class="uuid-38d92f51-3993-41e3-a255-ac3192d75786" d="M408.25873,68.95876c-.38379.11719-.86621.22363-1.44727.32031-.58203.0957-1.19238.14355-1.83203.14355-.66211,0-1.25391-.10156-1.77637-.30371-.52246-.20312-.96777-.49316-1.33594-.87207s-.65039-.83789-.84766-1.37598c-.19824-.53906-.29688-1.14453-.29688-1.81641,0-.66113.08301-1.26074.24805-1.7998.16602-.53809.4082-1,.72852-1.38379s.70898-.68066,1.16797-.88867c.45801-.20801.98633-.31152,1.58398-.31152.40527,0,.7627.04785,1.07227.14355.30859.09668.5752.20312.7998.32031v-4.01562l1.93555-.32031v12.16016ZM402.70697,65.00662c0,.85352.20215,1.52246.6084,2.00781.40527.48535.96484.72852,1.67969.72852.30957,0,.57324-.01367.79199-.04004s.39746-.05664.53613-.08789v-4.80078c-.1709-.11719-.39746-.22656-.67969-.32715-.2832-.10156-.58496-.15234-.9043-.15234-.7041,0-1.21875.24023-1.54395.71973-.32617.48047-.48828,1.13086-.48828,1.95215Z"/><path class="uuid-38d92f51-3993-41e3-a255-ac3192d75786" d="M417.58685,68.95876c-.37305.0957-.8584.19434-1.45605.2959-.59668.10156-1.25293.15234-1.96777.15234-.67188,0-1.23438-.09668-1.6875-.28809-.4541-.19238-.81641-.45898-1.08789-.80078-.27246-.34082-.4668-.74902-.58496-1.22363-.11719-.47461-.17578-.99414-.17578-1.55957v-4.68848h1.93652v4.38379c0,.89648.12988,1.53613.3916,1.91992.26172.38477.71777.57617,1.36816.57617.23438,0,.48242-.00977.74414-.03125.26074-.02148.45605-.04883.58398-.08008v-6.76855h1.93555v8.1123Z"/><path class="uuid-38d92f51-3993-41e3-a255-ac3192d75786" d="M422.1474,67.82302c.51172,0,.88477-.06152,1.12012-.18457.23438-.12207.35156-.33301.35156-.63184,0-.27734-.125-.50684-.37598-.68848-.25098-.18066-.66406-.37793-1.24023-.5918-.35156-.12793-.6748-.26367-.96777-.4082-.29297-.14355-.54688-.31152-.75977-.50391-.21387-.19141-.38184-.42383-.50391-.69531-.12305-.27246-.18457-.60547-.18457-1,0-.76855.2832-1.37402.84863-1.81641s1.33301-.66406,2.30371-.66406c.49023,0,.95996.0459,1.4082.13574.44824.09082.78418.17871,1.00781.26465l-.35156,1.56738c-.21387-.0957-.48633-.18359-.81641-.26367-.33105-.08008-.71484-.12012-1.15234-.12012-.39453,0-.71484.06738-.95996.2002-.24512.13379-.36719.33887-.36719.61621,0,.13867.02344.26172.07129.36816s.13086.20508.24805.2959.27246.18164.46387.27148c.19238.09082.42676.18457.7041.28027.45898.1709.84863.33887,1.16797.50391.32031.16602.58398.35254.79199.55957.20801.20801.36035.44629.45605.71289.09668.2666.14453.58594.14453.95996,0,.7998-.2959,1.40527-.88867,1.81543-.5918.41113-1.4375.61621-2.53613.61621-.73535,0-1.32715-.06152-1.77539-.18359-.44824-.12305-.7627-.22168-.94434-.29688l.33594-1.61523c.28809.11719.63184.22949,1.03223.33594s.85645.16016,1.36816.16016Z"/><path class="uuid-38d92f51-3993-41e3-a255-ac3192d75786" d="M427.26654,58.63845l1.93652-.32031v2.52832h2.97559v1.61621h-2.97559v3.4082c0,.67188.10645,1.15137.31934,1.43945.21387.28809.57617.43262,1.08887.43262.35156,0,.66309-.03711.93555-.1123.27246-.07422.48828-.14355.64844-.20801l.31934,1.53613c-.22363.0957-.51758.19434-.87988.2959s-.78906.15234-1.28027.15234c-.59668,0-1.0957-.08008-1.49609-.24023-.39941-.16016-.7168-.39258-.95117-.69629-.23535-.30371-.40039-.67188-.49609-1.10352-.09668-.43262-.14453-.92578-.14453-1.48047v-7.24805Z"/><path class="uuid-38d92f51-3993-41e3-a255-ac3192d75786" d="M438.81927,62.5906c-.16016-.05371-.38184-.10938-.66406-.16797s-.61035-.08789-.98438-.08789c-.21289,0-.43945.02148-.67969.06348-.24023.04297-.4082.08008-.50391.1123v6.7041h-1.93555v-7.96777c.37305-.13867.83984-.26953,1.39941-.39258.56055-.12207,1.18164-.18359,1.86426-.18359.12793,0,.27734.00781.44824.02441.16992.01562.34082.03711.51172.06348s.33594.05859.49609.0957c.16016.03809.28809.07227.38379.10449l-.33594,1.63184Z"/><path class="uuid-38d92f51-3993-41e3-a255-ac3192d75786" d="M447.61908,60.84646c-.86328,3.17871-1.86426,6.05859-3.00293,8.64062-.21387.47949-.43262.88965-.65723,1.23145-.22363.3418-.47461.62402-.75195.84766-.27832.22461-.58789.38672-.92969.48828s-.73633.15234-1.18457.15234c-.2998,0-.5957-.03223-.88965-.0957-.29297-.06445-.51465-.13379-.66406-.20801l.35156-1.55273c.38574.14941.7666.22461,1.1416.22461.50293,0,.89648-.12012,1.18066-.36035s.5332-.61035.74805-1.1123c-.61133-1.17285-1.19727-2.45312-1.75977-3.83984s-1.06348-2.8584-1.50293-4.41602h2.06445c.10742.44824.23828.93359.39355,1.45605s.32422,1.05371.50586,1.5918c.18164.53906.375,1.0752.57812,1.6084s.40723,1.0293.61035,1.48828c.33984-.94922.6582-1.95996.95605-3.03223.29688-1.07227.56738-2.10938.8125-3.1123h2Z"/></g></svg>