<svg width="785" height="90" viewBox="0 0 785 90" fill="none" xmlns="http://www.w3.org/2000/svg">
<path d="M138.01 58.8912C137.481 58.3627 136.627 58.3133 136.056 58.8137C132.796 61.6328 128.548 63.3384 123.904 63.3384C118.782 63.3384 114.138 61.2664 110.78 57.9116C107.421 54.5569 105.346 49.9194 105.346 44.7957C105.346 39.672 107.421 35.0416 110.78 31.6798C113.927 28.5365 118.203 26.5138 122.952 26.2812C118.125 26.4997 114.082 28.3885 110.483 31.3838C101.084 39.2069 94.6627 54.5851 85.0659 67.5953C87.0064 70.8866 89.3633 73.9241 92.0518 76.6093C100.202 84.7425 111.464 89.7816 123.912 89.7816C136.359 89.7816 146.64 85.1724 154.692 77.6383C155.284 77.0816 155.306 76.1372 154.727 75.5592L138.017 58.8772L138.01 58.8912Z" fill="url(#paint0_linear_702_1427)"/>
<path d="M138.01 58.8912C137.481 58.3627 136.627 58.3133 136.056 58.8137C132.796 61.6328 128.548 63.3384 123.904 63.3384C118.782 63.3384 114.138 61.2664 110.78 57.9116C107.421 54.5569 105.346 49.9194 105.346 44.7957C105.346 39.672 107.421 35.0416 110.78 31.6798C113.927 28.5365 118.203 26.5138 122.952 26.2812C118.125 26.4997 114.082 28.3885 110.483 31.3838C101.084 39.2069 94.6627 54.5851 85.0659 67.5953C87.0064 70.8866 89.3633 73.9241 92.0518 76.6093C100.202 84.7425 111.464 89.7816 123.912 89.7816C136.359 89.7816 146.64 85.1724 154.692 77.6383C155.284 77.0816 155.306 76.1372 154.727 75.5592L138.017 58.8772L138.01 58.8912Z" fill="url(#paint1_linear_702_1427)"/>
<path d="M123.988 0.00705465C123.72 0.00705465 123.452 0.0141093 123.191 0.0141093C122.796 0.0211571 122.408 0.035244 122.02 0.0493395C103.751 0.704782 92.538 10.4871 83.908 22.2005C70.6278 40.2075 63.4302 62.7251 46.015 63.5215C45.8597 63.5427 45.7115 63.5427 45.5492 63.5427C45.3869 63.5497 45.2246 63.5498 45.0623 63.5498C41.6823 63.5498 38.5069 62.6476 35.7761 61.076C30.1803 57.834 26.4334 51.7729 26.4969 44.8308C26.5957 34.6327 34.8446 26.4714 45.0623 26.4714C47.9625 26.4714 50.7004 27.1339 53.149 28.3179C53.8335 28.6492 54.6591 28.4166 55.0401 27.7612L66.8596 7.31559C67.2689 6.60376 67.0078 5.70167 66.2881 5.31404C59.8173 1.86064 52.4151 -0.0704639 44.5472 0.0141093C19.9626 0.281924 0 20.4597 0 45.0141C0 61.675 9.06045 76.2075 22.5241 83.9812C29.1501 87.8082 36.8487 90 45.0553 90C45.3234 90 45.5916 90 45.8527 89.9929C64.8203 89.7251 76.3223 79.7666 85.1358 67.8066C94.7396 54.7894 101.154 39.4111 110.553 31.5952C114.159 28.5999 118.195 26.7111 123.022 26.4926C123.177 26.4855 123.325 26.4714 123.487 26.4714C123.65 26.4714 123.812 26.4644 123.974 26.4644C128.617 26.4644 132.873 28.177 136.126 30.9891C136.697 31.4824 137.544 31.4401 138.08 30.9186L154.79 14.2224C155.368 13.6445 155.354 12.7001 154.754 12.1433C146.703 4.61632 135.879 0 123.974 0L123.988 0.00705465Z" fill="url(#paint2_linear_702_1427)"/>
<path d="M195.534 46.163C195.534 28.4167 209.104 15.8365 227.577 15.8365C238.31 15.8365 246.968 19.748 252.628 26.831L242.142 36.3314C238.48 31.9124 233.985 29.5021 228.41 29.5021C218.835 29.5021 212.18 36.1693 212.18 46.1701C212.18 56.1709 218.842 62.831 228.41 62.831C233.985 62.831 238.48 60.4207 242.142 56.0088L252.628 65.5021C246.968 72.5851 238.31 76.4966 227.577 76.4966C209.097 76.4966 195.534 63.9164 195.534 46.1701V46.163ZM257.045 52.654C257.045 39.073 267.778 29.4105 282.519 29.4105C297.26 29.4105 307.992 39.073 307.992 52.654C307.992 66.2351 297.422 76.0597 282.519 76.0597C267.616 76.0597 257.045 66.3056 257.045 52.654ZM292.003 52.654C292.003 45.8247 287.924 41.9837 282.512 41.9837C277.099 41.9837 273.028 45.8177 273.028 52.654C273.028 59.4904 277.184 63.4794 282.512 63.4794C287.839 63.4794 292.003 59.5679 292.003 52.654ZM394.384 49.4896V75.3196H378.571V52.0761C378.571 45.5781 375.904 42.8224 371.747 42.8224C367.168 42.8224 363.837 45.9093 363.837 52.9007V75.3126H348.024V52.0691C348.024 45.571 345.448 42.8294 341.2 42.8294C336.536 42.8294 333.205 45.9093 333.205 52.9007V75.3196H317.392V30.1576H332.457V34.9078C335.872 31.2429 340.614 29.4175 345.942 29.4175C352.102 29.4175 357.345 31.6587 360.506 36.5006C364.084 32.0041 369.659 29.4175 376.158 29.4175C386.643 29.4175 394.391 35.4998 394.391 49.4896H394.384V49.4896ZM456.975 52.6681C456.975 67.0738 447.061 76.0737 434.832 76.0737C428.925 76.0737 424.508 74.4105 421.509 70.8302V75.3196H406.444V13.5107H422.257V34.0902C425.341 30.9257 429.582 29.4175 434.825 29.4175C447.061 29.4175 456.968 38.333 456.968 52.6611L456.975 52.6681ZM440.992 52.6681C440.992 45.8389 436.829 41.9978 431.501 41.9978C426.174 41.9978 422.017 45.8318 422.017 52.6681C422.017 59.5045 426.174 63.4935 431.501 63.4935C436.829 63.4935 440.992 59.582 440.992 52.6681ZM463.544 52.6681C463.544 39.0871 474.284 29.4246 489.018 29.4246C503.752 29.4246 514.492 39.0871 514.492 52.6681C514.492 66.2492 503.921 76.0737 489.018 76.0737C474.115 76.0737 463.544 66.3197 463.544 52.6681ZM498.509 52.6681C498.509 45.8389 494.43 41.9978 489.018 41.9978C483.606 41.9978 479.527 45.8318 479.527 52.6681C479.527 59.5045 483.69 63.4935 489.018 63.4935C494.346 63.4935 498.509 59.582 498.509 52.6681ZM521.647 46.1701C521.647 28.4238 535.216 15.8436 553.69 15.8436C564.43 15.8436 573.088 19.755 578.748 26.8381L568.262 36.3384C564.606 31.9195 560.104 29.5091 554.53 29.5091C544.961 29.5091 538.3 36.1763 538.3 46.1771C538.3 56.1779 544.961 62.8381 554.53 62.8381C560.104 62.8381 564.606 60.4277 568.262 56.0158L578.748 65.5091C573.088 72.5922 564.43 76.5036 553.69 76.5036C535.216 76.5036 521.647 63.9234 521.647 46.1771V46.1701ZM633.851 30.1576V75.3056H618.786V70.4849C615.37 74.2343 610.551 76.0667 605.386 76.0667C594.314 76.0667 586.249 69.7307 586.249 55.4026V30.1505H602.062V52.8091C602.062 59.8075 604.807 62.5632 609.549 62.5632C614.291 62.5632 618.038 59.4763 618.038 51.8929V30.1505H633.851V30.1576ZM676.303 29.4175V43.6611C674.877 43.499 673.875 43.4074 672.725 43.4074C666.311 43.4074 661.901 46.6564 661.901 54.564V75.3056H646.087V30.1576H661.145V35.5773C664.398 31.4896 669.634 29.4105 676.303 29.4105V29.4175ZM733.82 30.1646L715.17 75.3126H698.848L680.283 30.1646H696.519L707.33 57.7496L718.74 30.1646H733.813H733.82ZM784.584 56.7488H751.792C753.126 61.3298 757.035 63.9939 762.857 63.9939C767.274 63.9939 770.181 62.7394 773.265 60.0824L781.592 68.7511C777.259 73.5859 770.929 76.0879 762.363 76.0879C746.295 76.0879 735.887 66.1717 735.887 52.6681C735.887 39.1646 746.458 29.4246 760.691 29.4246C774.006 29.4246 784.831 37.9172 784.831 52.8443C784.831 54.0072 784.668 55.5084 784.577 56.7558L784.584 56.7488ZM751.538 48.4183H770.019C769.194 43.6681 765.686 40.6587 760.775 40.6587C755.864 40.6587 752.456 43.6681 751.538 48.4183V48.4183Z" fill="#02233C"/>
<defs>
<linearGradient id="paint0_linear_702_1427" x1="85.0589" y1="58.0455" x2="155.15" y2="58.0455" gradientUnits="userSpaceOnUse">
<stop stop-color="#05A582"/>
<stop offset="0.81" stop-color="#05A582"/>
</linearGradient>
<linearGradient id="paint1_linear_702_1427" x1="164.43" y1="82.8819" x2="80.3204" y2="37.9793" gradientUnits="userSpaceOnUse">
<stop stop-color="#236F8F" stop-opacity="0"/>
<stop offset="1" stop-color="#236F8F"/>
</linearGradient>
<linearGradient id="paint2_linear_702_1427" x1="2.5756" y1="5.32106" x2="157.843" y2="80.7057" gradientUnits="userSpaceOnUse">
<stop stop-color="#00C290"/>
<stop offset="0.79" stop-color="#236F8F"/>
</linearGradient>
</defs>
</svg>
