<svg xmlns="http://www.w3.org/2000/svg" width="725.6" height="145.849" viewBox="0 0 725.6 145.849">
  <g id="Group_217" data-name="Group 217" transform="translate(-48 -5679)">
    <path id="Path_428" data-name="Path 428" d="M139.41,122c-.68-.46-3.63,1.36-4.31,1.81a15.79,15.79,0,0,1-5.67,1.14A26.92,26.92,0,0,1,119,122.72c-6.58-3.18-11.57-8.39-15.88-14.06a38.8,38.8,0,0,1-2.27-4.08,22.351,22.351,0,0,1-2.49-5.22c-1.59-3.4-3.4-6.81-5-10.21L83.81,68.9c-.68-1.36-1-2-4.14-8.84a3.48,3.48,0,0,0-.28-.58h0V59.3a.56.56,0,0,1,.1-.6l1.08-.78h0a84.929,84.929,0,0,0,7.74-5.46c2.49-2.27,5.21-4.77,6.57-7.71,3-5,5.44-10.44,5.9-16.56.45-5,0-10.66-2.95-15a26.58,26.58,0,0,0-5.67-6.58,36.17,36.17,0,0,0-10.5-4.74A109.889,109.889,0,0,0,62.15.06H12.26C11.8.06,10-.17,9.76.28L9.54,3.46c2.72-.23,5,3,5.89,5,.91,2.27,1.59,5,.91,7.48-.68,2-.23,4.08-1.13,11.8,0,3.4,0,8.16-.91,11.56-1.36,7.94-1.36,16.11-2.27,24-.23,8.2-.45,3.7-1.13,11.37-.23,2.73.22,6.13-.91,11.57a109.62,109.62,0,0,1-.91,12c-.22,3.18-1.13,7-4.08,9.07-1.36,1.14-2.27,2.27-3.86,2.72H.24c-.23,1.37-.68,3.41.9,3.41H44c-.23-1.14,0-2.5-.68-3.41-.91-.9-2.27-1.36-2.95-2.26a9.36,9.36,0,0,1-3-6.35c-.23-3.41.46-6.81.68-10,.23-3.4.69-6.81.91-10.66.45-3.4.45-6.81.91-10,.22-.91.68-1.36,1.36-1.36,1.81-.46,3.4-.68,9.52-1.36l1.32-.24h0a1.49,1.49,0,0,1,.81,0h.06a1.9,1.9,0,0,1,.77.91c.35.66.68,1.44,1,2.18,1,1.76,1.73,3.29,2.45,4.81L67.74,97.09c3.4,7,6.58,14.06,10.21,20.87a26.8,26.8,0,0,0,4.76,7.25c2.27,2.27,4.31,4.54,6.8,6.13a35,35,0,0,0,18.37,6.12,33,33,0,0,1,4.77,0,19.62,19.62,0,0,0,5-.45,52.17,52.17,0,0,0,9.52-3.18,17.161,17.161,0,0,0,4.08-2.27,31.439,31.439,0,0,0,4.09-2.49c1.13-.91,2.72-1.82,3.4-2.95.68-.68.22-1.36.45-1.82C139.18,123.63,139.86,122.49,139.41,122ZM41.29,54.71c0-1.13.23-2.26.23-3.4.67-2.94.45-6.12.9-9.07.46-1.59.23-3.18,1.14-14.29.45-5,1.36-10.2,1.36-15.42.22-.68.22-1.36.9-1.13.91,0,1.82.22,8.85.22,1.13,0,2.27-.22,9.3-.22a10.36,10.36,0,0,1,7.48,2.49c3.63,3.18,5.9,10,4.77,15.2a31.9,31.9,0,0,1-3.86,10.66c-1.81,3.17-4.53,5.67-7.48,8.16-3.63,3-8.17,4.54-12.48,5.9C51.5,54,41.52,56.08,41.29,54.71Z" transform="translate(48 5678.999)" fill="#00704a"/>
    <path id="Path_429" data-name="Path 429" d="M113.23,3.78h27a2.52,2.52,0,0,1-.56,2,26.164,26.164,0,0,1-2.26,1.55,7.71,7.71,0,0,0-2.26,4.52,23.079,23.079,0,0,0-.28,4.38,28.779,28.779,0,0,0-.57,4.95c0,1.41-.28,2.82-.28,4.38l-.42,4.94c-.29,3-.57,6.21-1,9.18a25,25,0,0,1-.43,4.52c-.28,1.55-.28,3.11-.42,4.66-.28,1.84-.14,3.81-.28,5.65-.57,1.55-.29,2.83-.43,4.24a4.151,4.151,0,0,1-.28,1.27c.28,3-1.13,6.36.14,9.18a5.85,5.85,0,0,0,3,3.11c.56.28,1,2.12-.14,2-1.84,0-3.68.14-5.51.14s-3.67-.14-5.51-.14c-1.55,0-3.11.14-4.66,0-3.67-.15-7.35,0-10.88.14l.14-2a6.54,6.54,0,0,0,4.38-3.81,18.58,18.58,0,0,0,1.27-6.78,12.179,12.179,0,0,0,0-3.25,6.12,6.12,0,0,0,.29-1.56,5.52,5.52,0,0,0,.28-2.12c.14-2.4.56-4.8.71-7.34.14-1.13.14-2.4.28-3.67.28-2.55.14-4.8.56-7.35l.57-7.34c.28-.57.14-1.27.42-1.84,0-.71-.28-1.13,0-1.69a30.5,30.5,0,0,0,.42-3.54,36,36,0,0,0,.15-3.95,38,38,0,0,0,.42-7.91,5.43,5.43,0,0,0-4-4.66Z" transform="translate(48 5678.999)" fill="#00704a"/>
    <path id="Path_430" data-name="Path 430" d="M212.52,5.9c-2.82-.56-5.65,4.38-6.92,6.64-.43,1-.71,1.84-1,2.68A168.225,168.225,0,0,1,197,36.69c-.84,2.55-1.83,5.09-2.68,7.91-2,5.94-4.1,11.87-6.92,19.21-.42,1.42-.85,2.69-1.27,4-.57,1.41-1.13,2.68-1.56,4.09l-.42,2c-.14.28-.14.57-.56.57-4.81,0-9-.71-13.14-3.53a14.37,14.37,0,0,1-3.67-3.54,17.51,17.51,0,0,1-3.13-6.4,32.311,32.311,0,0,1-.85-3.53c-1-5.79-.85-6.36-1.13-6.92-.28-2-.71-3.82-1.41-8.62-2-7.63-2.4-15.68-4.52-24.58-.14-.84-.43-1.55-.57-2.4,0-3.39-1.69-7.48-5.22-8.9a1.37,1.37,0,0,1-.57-.7c-.14-.29.14-.57-.14-.71,0-.28,0-.71.28-.71.43-.28,1.13-.14,1.7-.14h13.7a6.18,6.18,0,0,0,4.52,0h6.07a2.79,2.79,0,0,1-.14,1.84c-.28.56-.84.71-1.41,1.27-1,1-2,2.68-1.55,4.1.28.42,0,1.13.14,1.69.56,2.12.56,4.38,1.27,6.5a38.65,38.65,0,0,1,1.41,7.48c.57,3.4,1.41,6.78,2,10.46.56,5.08,1.83,10.17,2.54,15.25a22.75,22.75,0,0,0,.85,4.24c.14,1,.56-.14.56-.57,1.13-2.68,1.84-5.5,3.39-9.18L187,39.94c3.24-9.18,4.09-11.58,4.94-14,.85-2.69,1.69-5.37,2.68-7.91a47.171,47.171,0,0,0,2.12-5.79,7.539,7.539,0,0,0,.42-1.7,4.35,4.35,0,0,0,.29-1.83c-.14-.71-.71-1.13-1.13-1.7a5.36,5.36,0,0,1-1.13-1.41,2.7,2.7,0,0,1,0-1.84H197c.71.85,5.51.85,6.36,0h9C212.94,3.92,212.52,5.48,212.52,5.9Z" transform="translate(48 5678.999)" fill="#00704a"/>
    <path id="Path_431" data-name="Path 431" d="M251.22,74.41c-1-.29-2.55-.57-3.39,0H217.18a3.59,3.59,0,0,1-1.28-.14c-.42,0-.28-.57-.28-.85.43-.28.28-1,1-1.27a7.9,7.9,0,0,0,4.1-4.66,28.51,28.51,0,0,0,.56-3.39l2-23a37.8,37.8,0,0,1,.42-4l.57-5.09v-2c.14-2.55.42-5.09.7-7.63l.29-3.39c.14-1.13.14-2.54.28-3.67l.28-3.25a11.119,11.119,0,0,0-.56-3A6,6,0,0,0,223.67,7c-.42-.56-1.27-1.41-2.12-1.13,0-.42-.14-1.84.15-2.12h41.24A12.388,12.388,0,0,0,263.08,7c.85,3.11,1,6.5,1.84,9.61.14.28.71,1.13,0,1.13a10.09,10.09,0,0,0-2.12-.15,1.994,1.994,0,0,1-1.27-1.12,6.71,6.71,0,0,0-1.27-1.7,7.46,7.46,0,0,0-3.67-1.7,30.881,30.881,0,0,0-5.09,0,5.44,5.44,0,0,0-2.12-.14,14.11,14.11,0,0,1-4.94,0c-.57,0-1.27,0-1.27.71a29.642,29.642,0,0,1-.57,6.07,19,19,0,0,0-.28,6.08l-.57,6.07a5.26,5.26,0,0,0-.14,2.12c0,.42.71.28,1,.14,1.13,0,2.4.14,3.53.14h3.53a5.79,5.79,0,0,0,1.56,0,7.91,7.91,0,0,0,4.24-2,3.81,3.81,0,0,1,1.83-1c.42,0,.85.14,1.27.14.14-.14.71-.29.85-.14.42.28-.42,1.69-.56,2l-.71,2.4a48.935,48.935,0,0,0-1.84,4.81c0,.42-.42.84-.56,1.27a4.15,4.15,0,0,0-.28,1.27c-1,2.82-1.14,3.11-1.28,3.53a2.857,2.857,0,0,1-.56,1.13,1.521,1.521,0,0,1-1.7-.14,7,7,0,0,0-1.27-2.26,4.53,4.53,0,0,0-2.12-1.55c-2.11-.85-4.37-.43-6.63-.57-.43,0-1.13-.14-1.28.28-.28.71,0,1.56-.28,2.12l-.42,5.09c-.29,3.39-.57,6.78-.71,10.17a3.1,3.1,0,0,1-.42,1c0,.42.14,1,.14,1.41s-.42,1.69-.14,1.83c.56.29,1.55,0,2.12,0a19.569,19.569,0,0,1,3,.15,6.94,6.94,0,0,0,3-.15,15.47,15.47,0,0,1,2.54.15,12.929,12.929,0,0,0,2.4-.15,7.91,7.91,0,0,0,6.78-3.81c.29-.71.57-.71,1.27-.71.85,0,1.56-.28,2.41-.28v.57c-.85.42-.85,1.55-1.14,2.26-.28,1.13-.84,2.26-1.27,3.53L258.5,70.7l-.56,2c-.29.57-.43,1.13-.71,1.7Z" transform="translate(48 5678.999)" fill="#00704a"/>
    <path id="Path_432" data-name="Path 432" d="M269,74.41c-1,0-.7-1.27-.56-2.12H269a6.75,6.75,0,0,0,2.4-1.7c1.84-1.27,2.4-3.67,2.55-5.65a69.81,69.81,0,0,0,.56-7.48,39.791,39.791,0,0,0,.57-7.21c.42-4.8.56-2,.7-7.06.57-4.94.57-10,1.41-15a30.75,30.75,0,0,0,.57-7.2c.56-4.81.28-6.08.71-7.35A7.54,7.54,0,0,0,277.91,9c-.56-1.27-2-3.25-3.67-3.11l.14-2c.14-.28,1.27-.14,1.55-.14H307a68.541,68.541,0,0,1,12.15,1.13,22.81,22.81,0,0,1,6.49,3,16.2,16.2,0,0,1,3.53,4.1c1.84,2.68,2.12,6.21,1.84,9.32a23.869,23.869,0,0,1-3.67,10.31,16.65,16.65,0,0,1-4.1,4.8A57.941,57.941,0,0,1,318,40.08c-.42.14-.42.29-.28.71,1.28,3.21,3.13,6.21,4.4,9.46,1.27,3,2.83,5.37,3.82,8.2a16.848,16.848,0,0,1,1.41,3.24c1.13,2.69,2.54,5.09,3.67,7.63a3.981,3.981,0,0,0,3.39,3,5.57,5.57,0,0,1-.28,2.12h-8.05a31,31,0,0,1-6.5-.29,13.06,13.06,0,0,1-5.65-2.68,12.731,12.731,0,0,1-2.54-3c-1.7-2.68-2.26-5.5-3.53-8a75.907,75.907,0,0,1-5.94-13.84c-.28-1-1.13-.56-2-.42A44.8,44.8,0,0,0,294,47c-.42,0-.7.29-.84.85-.29,2-.29,4.1-.57,6.22-.14,2.4-.42,4.52-.56,6.64a43.154,43.154,0,0,0-.43,6.21,5.82,5.82,0,0,0,1.84,4c.42.56,1.27.84,1.83,1.41s.29,1.41.43,2.12Zm43.79-62a6.46,6.46,0,0,0-4.66-1.55c-4.38,0-5.09.14-5.79.14-4.38,0-5-.14-5.51-.14-.43-.15-.43.28-.57.7,0,3.25-.56,6.5-.84,9.61-.57,6.92-.43,7.91-.71,8.9-.28,1.83-.14,3.81-.57,5.64,0,.71-.14,1.42-.14,2.12s6.36-.42,6.92-.56a23.21,23.21,0,0,0,7.77-3.67,19.809,19.809,0,0,0,4.66-5.09,19.77,19.77,0,0,0,2.4-6.64,10.79,10.79,0,0,0-2.95-9.47Z" transform="translate(48 5678.999)" fill="#00704a"/>
    <path id="Path_433" data-name="Path 433" d="M346.13,3.78h34.46a66.112,66.112,0,0,1,6.78,1,25.05,25.05,0,0,1,6.78,2.69,15.49,15.49,0,0,1,4.8,4.8,15.07,15.07,0,0,1,2.41,6.49,19,19,0,0,1-.85,6.93c-.42,1.13-1.13,2.11-1.56,3.1a15.231,15.231,0,0,1-2.11,3.11A17.18,17.18,0,0,1,392,36.13c-1.41,1-2.82,1.69-4.23,2.54-1,.43.14.57.42.71.85.14,1.55.56,2.4.7a10.791,10.791,0,0,1,1.84.85,7.89,7.89,0,0,1,2.12,1.27A13,13,0,0,1,398,45.59a16,16,0,0,1,2,5.09l.15,2.82c0,1.13-.43,2.12-.43,3.11a15.5,15.5,0,0,1-.85,2.82A24.58,24.58,0,0,1,388.5,70.88a32.51,32.51,0,0,1-15,3.39c-3,0-5.93,0-8.76.14a12.84,12.84,0,0,0-2.4-.14,9,9,0,0,1-2.82-.15c-1.7,0-3.82.43-5.51,0-.57,0-1.13.29-1.7.15a4.36,4.36,0,0,0-2,0,12.8,12.8,0,0,0-2.4,0c-1.56,0-3.11.14-4.53,0a27.541,27.541,0,0,0-3.39.14l.15-2.12c1.13.14,1.69-.57,2.54-1.27,1.27-1.42,2.54-3.11,2.54-5.09l.42-5.51a4,4,0,0,0,.29-1.83,67.5,67.5,0,0,1,.7-7.49c.29-2.54.14-5.08.71-7.48.14-.71,0-1.14.14-1.84a3.49,3.49,0,0,1,0-1.7l.57-7.62c.14-1.28.42-2.55.56-3.82a67.672,67.672,0,0,1,.71-7.62,14.486,14.486,0,0,1,.28-3.54,34.86,34.86,0,0,0,.28-3.81c0-1.69.29-3.39-.56-4.94-.71-1.27-1.84-2.83-3.39-3.11Zm36.44,48.45a11.55,11.55,0,0,0-2-7.2c-1.41-1.84-3.53-2-5.79-1.84-2.82.14-5.79,0-8.76-.14-1.13,0-1.13,1.55-1,2.26a37.844,37.844,0,0,1-.43,3.95c-.28,2.69-.28,5.37-.7,8.06s-.29,5.08-.57,7.62a8.368,8.368,0,0,1-.28,1.84c0,.28.14.42.42.56a32.458,32.458,0,0,0,3.82,0,20.889,20.889,0,0,1,3,0,2.43,2.43,0,0,0,1-.14l1.27-.42a8.54,8.54,0,0,0,5.23-2.68c.7-.71,1.55-1.13,2.12-2.12,1.55-2.55,2.82-5.37,2.68-8.34C382.85,53.08,382.57,52.65,382.57,52.23ZM371,35a15.08,15.08,0,0,0,3.81-.28,9.47,9.47,0,0,0,4-1.42A12.239,12.239,0,0,0,382,30.48a17.27,17.27,0,0,0,3.39-7.91,20,20,0,0,0-.29-6.5,8.14,8.14,0,0,0-3.1-4.38c-1.7-1.27-4.24-.84-6.36-.84-1.13,0-2.12.14-3.25.14a27.461,27.461,0,0,1-3.39-.14c-.56,0-1,0-1.13.7-.14,1.13-.14,2.26-.28,3.25l-.14,1.55c-.14.57.14,1.13,0,1.56A3.66,3.66,0,0,1,367,19.6a6.913,6.913,0,0,1,0,1.7v1.41c-.14.56,0,1.13-.14,1.7a27.864,27.864,0,0,0-.42,3.38l-.29,3.11c-.14.57,0,1-.14,1.56a3.92,3.92,0,0,1-.14,1.83c0,.29,0,.85.43.85S367.46,35,368,35Z" transform="translate(48 5678.999)" fill="#00704a"/>
    <path id="Path_434" data-name="Path 434" d="M440.48,74.41c-1-.29-2.54-.57-3.39,0H406.44a3.51,3.51,0,0,1-1.27-.14c-.43,0-.29-.57-.29-.85.43-.28.29-1,1-1.27a7.9,7.9,0,0,0,4.1-4.66,28.513,28.513,0,0,0,.56-3.39l2-23a37.808,37.808,0,0,1,.42-4l.54-5.1V30c.14-2.55.42-5.09.71-7.63l.28-3.39c.14-1.13.14-2.54.28-3.67l.28-3.25a11.118,11.118,0,0,0-.56-3A5.85,5.85,0,0,0,412.93,7c-.42-.56-1.27-1.41-2.11-1.13,0-.42-.14-1.84.14-2.12H452.2A12.39,12.39,0,0,0,452.34,7c.85,3.11,1,6.5,1.84,9.61.14.28.71,1.13,0,1.13a10.09,10.09,0,0,0-2.12-.15,1.994,1.994,0,0,1-1.27-1.12,6.71,6.71,0,0,0-1.27-1.7,7.46,7.46,0,0,0-3.67-1.7,30.88,30.88,0,0,0-5.09,0,5.44,5.44,0,0,0-2.12-.14,14.11,14.11,0,0,1-4.94,0c-.57,0-1.27,0-1.27.71a29,29,0,0,1-.57,6.07,19,19,0,0,0-.28,6.08l-.58,6.1a5.26,5.26,0,0,0-.14,2.12c0,.42.71.28,1,.14,1.13,0,2.4.14,3.53.14h3.53a5.79,5.79,0,0,0,1.56,0,7.88,7.88,0,0,0,4.24-2,3.81,3.81,0,0,1,1.83-1c.43,0,.85.14,1.27.14.14-.14.71-.29.85-.14.42.28-.42,1.69-.56,2l-.71,2.4c-.56,1.56-1.41,3.11-1.84,4.81,0,.42-.42.84-.56,1.27a4.15,4.15,0,0,0-.28,1.27c-1,2.82-1.13,3.11-1.27,3.53a2.871,2.871,0,0,1-.57,1.13,1.5,1.5,0,0,1-1.69-.14,7.251,7.251,0,0,0-1.28-2.26,4.56,4.56,0,0,0-2.11-1.55c-2.12-.85-4.38-.43-6.64-.57-.43,0-1.13-.14-1.28.28-.28.71,0,1.56-.28,2.12l-.42,5.09c-.28,3.39-.57,6.78-.71,10.17a3.1,3.1,0,0,1-.42,1c0,.42.14,1,.14,1.41s-.42,1.69-.14,1.83c.56.29,1.55,0,2.12,0a19.51,19.51,0,0,1,3,.15,6.94,6.94,0,0,0,3-.15,15.4,15.4,0,0,1,2.54.15,12.93,12.93,0,0,0,2.4-.15,7.9,7.9,0,0,0,6.78-3.81c.29-.71.57-.71,1.27-.71.85,0,1.56-.28,2.41-.28v.57c-.85.42-.85,1.55-1.13,2.26-.29,1.13-.85,2.26-1.28,3.53l-1.41,4.09-.56,2c-.28.57-.43,1.13-.71,1.7Z" transform="translate(48 5678.999)" fill="#00704a"/>
    <path id="Path_435" data-name="Path 435" d="M521.27,3.78a2.44,2.44,0,0,1-.71,2.12c-.7.57-1.69.85-2.4,1.41a7.68,7.68,0,0,0-2.26,5.23c0,1.27-.28,2.4-.28,3.53-.28,1.7-.42,3.25-.57,4.8a64.452,64.452,0,0,1-.7,8.62c-.57,6.36.14,5.37-.85,9.46-.42,5.51-.28,9.89-1.13,13a30.886,30.886,0,0,0-.42,6.21l-.43,3.53c0,1.28-.28,2.69-.28,4a6.5,6.5,0,0,0,.71,4.1,10.23,10.23,0,0,0,2.82,2.68,1.52,1.52,0,0,1,.57,1.27c0,.71-.71.57-1.13.57-5.51,0-10.6.7-14.69-.29A20.709,20.709,0,0,1,495,72.43a15,15,0,0,1-4.95-4,19.09,19.09,0,0,1-3.39-5.93c-1-4.09-2.12-7.63-2.82-11.3-.42-1-.57-1.83-3.67-13-1.28-4.52-2.69-9-3.82-13.56,0-.28,0-1-.42-.71s-.14.85-.14,1.13c0,1.27-.29,2.54-.29,3.81-1.12,10-1.12,12.58-1.41,15.12-.28,4.24-.85,8.33-1.13,12.43-.28,1.83-.14,3.67-.42,5.37a20.3,20.3,0,0,0-.43,5.08,5.39,5.39,0,0,0,1.42,3.67l1.41,1.27c.42.29.85.57.85,1.13a1.52,1.52,0,0,1,.14,1.13c-.43.43-.71.15-1.13.15H469c-2,0-4.1.14-6.08.14a34.241,34.241,0,0,0-5.36,0l.14-1.84a8.7,8.7,0,0,0,5.08-5.37,27.462,27.462,0,0,0,.14-3.39,100.511,100.511,0,0,0,1.13-11.58c.71-2.12,1.13-14,1.42-15.25a69.45,69.45,0,0,0,.7-9.19l1.13-12.85a15.223,15.223,0,0,0,.43-3.53,12.921,12.921,0,0,0-1-3.25,7.29,7.29,0,0,0-3.25-2.54l.14-1.84h24.72c-.14,1,.85,2.55.85,3.53,1.69,5.51,2.54,10.6,4.37,15.26a34.732,34.732,0,0,1,.85,3.81c1,2.54,1.27,5.23,2.26,7.63,1.7,3.67,2.54,8.62,3.39,12.71.28,1.13.71,2.26,1,3.39.28,1.7,1.13,3.25,1.41,5,.14.42.43.28.57-.15l.14-2.11a17.611,17.611,0,0,0,.28-3.82c.14-1.41.43-2.68,1-8.9-.28-3,2-20,2-22.6a30.99,30.99,0,0,1,.14-3.53,9.39,9.39,0,0,0,0-3.95,5.12,5.12,0,0,0-2.12-3.25c-.28-.42-1-.57-1.41-1.13s-.14-1.13-.14-1.84Z" transform="translate(48 5678.999)" fill="#00704a"/>
    <path id="Path_436" data-name="Path 436" d="M530,3.78h27c3.53.14,10.74,1.13,15.25,3a16.62,16.62,0,0,1,5.37,3.11,17.581,17.581,0,0,1,4.52,4.66,26,26,0,0,1,3.39,5.79,32.912,32.912,0,0,1,2,6.35,41.655,41.655,0,0,1,1,7.21,33.567,33.567,0,0,1-.42,7.48c-2.41,9.47-3.25,11.87-4.53,14.13a33.088,33.088,0,0,1-4.09,6.21l-5.09,5.09c-7.91,6.5-18.36,7.34-27.68,7.2-5.09-.14-10.17.14-15.26.14H526.1c-.43,0-1.27-.14-1.56.29-.14,0-.56.14-.56-.29l.14-1.55c0-.42.14-.28.56-.28a17.65,17.65,0,0,0,2-1.41,8.9,8.9,0,0,0,1.84-2.12,6.619,6.619,0,0,0,.85-3.11c.14-1.7.14-3.39.42-4.94l.14-2.12a63.381,63.381,0,0,1,.85-7.35c.28-1.13-.14-2.4.14-3.53a17.469,17.469,0,0,0,.28-3.81,16.167,16.167,0,0,1,.57-3.53,34.82,34.82,0,0,1,.14-3.82,30.041,30.041,0,0,0,.28-3.67c0-2.26.71-4.8.71-7.06a11.45,11.45,0,0,1,.42-3.82l.57-7.34a10.57,10.57,0,0,0-.43-5.93,6.34,6.34,0,0,0-3.53-3.11ZM567.31,21c-1.41-4.24-3.95-7.77-8.33-9l-3.11-.85h-1.7a5.75,5.75,0,0,0-1.55,0c-1,.42-.85,2-.85,2.68l-1,11.44a12.769,12.769,0,0,1-.28,3.25,10.861,10.861,0,0,0-.28,3.67,32.905,32.905,0,0,0-.42,3.68,18.129,18.129,0,0,1-.29,3.95c-.14,1.27-.14,2.4-.28,3.67a17.739,17.739,0,0,0-.42,3.82c-.14,2.54-.29,4.94-.57,7.48a30.337,30.337,0,0,1-.42,3.53,32.73,32.73,0,0,0-.28,3.68,30.28,30.28,0,0,1-.29,3.53c0,.42-.28.85,0,1.27a1.178,1.178,0,0,0,1.13.42,27.459,27.459,0,0,0,3.39-.14,32.245,32.245,0,0,0,3.54-1.13c4.23-1.41,7.06-5.08,8.89-8.9,3.54-6.92,4.52-14.55,5.09-21.89A47.479,47.479,0,0,0,567.31,21Z" transform="translate(48 5678.999)" fill="#00704a"/>
    <path id="Path_437" data-name="Path 437" d="M159,105a34.89,34.89,0,0,0-.78,5.87c-2.34-.13-5.7-.3-7.55-.3a72.934,72.934,0,0,0-7.52.27l.17-1.11a5.74,5.74,0,0,0,1.82-.13c.77-.17,1-.3,1.1-1.51.14-1.48.1-2.59.17-5.57v-2.29a60.509,60.509,0,0,0-.4-8.12c-.2-1.17-.47-1.34-1.88-1.34h-1.41l.24-1.17a31.679,31.679,0,0,0,4.7.23c4.43,0,8.62-.16,10.57-.26V95l-.84.13c0-3.76-1-4.2-5.17-4.2-2.65,0-2.79.27-2.89,1.28-.1,1.34-.2,3.69-.2,6.85,1.08.06,1.75.06,2.52.06,1.21,0,2.89,0,3.46-.53.3-.27.37-.81.37-2.39h1a32.31,32.31,0,0,0-.13,3.53c0,1.17.13,2.38.13,3.56h-.91c0-1.65-.13-2-.43-2.35-.54-.54-1.51-.57-2.79-.57s-1.68,0-3.22.1v5.67c0,3,.17,3.12,3.59,3.12,2.25,0,3.39-.43,4.06-1.07s1-1.41,1.24-3.49Z" transform="translate(48 5678.999)"/>
    <path id="Path_438" data-name="Path 438" d="M196.65,111.5,179.43,94.08c.27,10.13.2,10.23.24,12.28,0,1.07,0,2.42.4,2.82s1.11.4,2.85.47l-.27,1.07c-1.14-.13-2.85-.16-3.79-.16a30.91,30.91,0,0,0-4.16.26l.2-1.1c1.81-.1,2.32,0,2.62-.37s.37-1.14.4-3.93c.1-6.81.1-9.53.1-12.18,0-1.45,0-2.89-.1-4.37l.4-.26,17.52,17.65c0-10.77-.23-13.26-.43-14.36-.27-1.45-.87-1.48-2-1.48h-1.24l.16-1a46.749,46.749,0,0,0,5,.17,29.348,29.348,0,0,0,3.46-.17l-.11,1.18h-1.51c-1.24,0-1.67.07-1.71.87-.23,4.84-.27,10.27-.27,15.31,0,1.54,0,3.08.1,4.63Z" transform="translate(48 5678.999)"/>
    <path id="Path_439" data-name="Path 439" d="M232.17,105a34.89,34.89,0,0,0-.78,5.87c-2.35-.13-5.7-.3-7.55-.3a72.934,72.934,0,0,0-7.52.27l.17-1.11a5.67,5.67,0,0,0,1.81-.13c.78-.17,1-.3,1.11-1.51.14-1.48.1-2.59.17-5.57v-2.29a60.509,60.509,0,0,0-.4-8.12c-.2-1.17-.47-1.34-1.88-1.34h-1.41l.24-1.17a31.679,31.679,0,0,0,4.7.23c4.43,0,8.62-.16,10.57-.26V95l-.84.13c0-3.76-1-4.2-5.17-4.2-2.65,0-2.79.27-2.89,1.28-.1,1.34-.2,3.69-.2,6.85,1.08.06,1.75.06,2.52.06,1.21,0,2.89,0,3.46-.53.3-.27.37-.81.37-2.39h1a30,30,0,0,0-.14,3.53c0,1.17.14,2.38.14,3.56h-.91c0-1.65-.13-2-.43-2.35-.54-.54-1.51-.57-2.79-.57s-1.68,0-3.22.1v5.67c0,3,.17,3.12,3.59,3.12,2.25,0,3.39-.43,4.06-1.07s1-1.41,1.24-3.49Z" transform="translate(48 5678.999)"/>
    <path id="Path_440" data-name="Path 440" d="M269.66,110.62c-1.17,0-2.31-.06-3.49-.06h-2.38c-2.18-2.85-5.88-7.75-7.72-9.83a12.621,12.621,0,0,1-1.75-.27v5a13.781,13.781,0,0,0,.23,3.36c.17.67,1,.77,2.72.77v1.11a33.478,33.478,0,0,0-4.63-.2,29.309,29.309,0,0,0-4.36.3l.33-1.11c1.38,0,2.45-.07,2.59-.74a87.61,87.61,0,0,0,.4-10.91c0-3.28,0-7.21-1.31-7.55a4.52,4.52,0,0,0-1.17-.13,7.58,7.58,0,0,0-1.24.1l.26-1.14a35.49,35.49,0,0,0,4.3.2c2.89,0,5.4-.17,6.65-.17,3.89,0,5.94,1.65,5.94,4.93a6.06,6.06,0,0,1-5.34,6.35,81.681,81.681,0,0,0,6.64,8.19c.71.74,1.31.77,2.92.77H270Zm-13-10.84c4.1,0,5.31-1.84,5.31-4.66,0-3.46-1.85-4.43-4.67-4.43a9.87,9.87,0,0,0-2.69.3,50.188,50.188,0,0,0-.26,5.77v2.79a10.7,10.7,0,0,0,2.32.23Z" transform="translate(48 5678.999)"/>
    <path id="Path_441" data-name="Path 441" d="M301.08,96.93V95.49c0-3.86-3.42-5-6.41-5-4.93,0-8.42,3-8.42,9.3,0,6.51,3.82,10.06,9.09,10.06,2.29,0,3.33-.67,3.7-1.27s.33-1.21.33-3.09c0-3.76-.13-3.89-2.08-3.89-1.11,0-2,.06-3,.1l.43-1.41c1.24.1,2.65.27,5,.27a20.812,20.812,0,0,0,2.58-.14,63.752,63.752,0,0,0-.47,9.67c-1.34.1-4.06,1-7.38,1-6.61,0-11.25-3.49-11.25-11.38,0-5.4,2.19-10.57,10.14-10.57,3.05,0,4.4.77,6.61.77,1.14,0,1.44-.2,1.85-1h.74a20.18,20.18,0,0,0-.61,5.57V96.7Z" transform="translate(48 5678.999)"/>
    <path id="Path_442" data-name="Path 442" d="M334.08,110.69c-1.17-.13-3.29-.13-4.4-.13-2.08,0-3.32.16-5.13.26l.37-1.07c1.94,0,2.75-.1,2.92-.67a62.283,62.283,0,0,0,.3-6.55c-.44-.84-6.71-10.4-7.92-11.61a1.51,1.51,0,0,0-1.34-.43h-.91l.3-1.11c1.82.14,2.86.17,4.27.17,1.61,0,3.18,0,4.66-.07l-.23,1c-1.21,0-2.86,0-2.86.51,0,.7,4.13,7.41,6,10.17,1.78-2.62,4.3-6.52,5.14-8a3.81,3.81,0,0,0,.67-1.71c0-1.24-2.39-1-3.56-1.14l.3-1c1,.1,2.65.17,4.9.17s3.93-.07,4.4-.14l-.37,1.15c-2.15.1-2.25.13-3.16,1.07a87.083,87.083,0,0,0-7.61,10.71v4.39c0,2,.3,2.65,1,2.72l2.48.24Z" transform="translate(48 5678.999)"/>
    <path id="Path_443" data-name="Path 443" d="M392.83,96.93V95.49c0-3.86-3.43-5-6.42-5-4.93,0-8.42,3-8.42,9.3,0,6.51,3.83,10.06,9.1,10.06,2.28,0,3.32-.67,3.69-1.27s.33-1.21.33-3.09c0-3.76-.13-3.89-2.08-3.89-1.1,0-2,.06-2.95.1l.44-1.41c1.24.1,2.65.27,5,.27a20.7,20.7,0,0,0,2.58-.14,63.752,63.752,0,0,0-.47,9.67c-1.34.1-4.06,1-7.38,1-6.61,0-11.24-3.49-11.24-11.38,0-5.4,2.18-10.57,10.13-10.57,3.06,0,4.4.77,6.62.77,1.14,0,1.44-.2,1.84-1h.74a20.56,20.56,0,0,0-.6,5.57V96.7Z" transform="translate(48 5678.999)"/>
    <path id="Path_444" data-name="Path 444" d="M432.1,110.62c-1.17,0-2.32-.06-3.49-.06h-2.38c-2.18-2.85-5.88-7.75-7.72-9.83a12.622,12.622,0,0,1-1.75-.27v5a13.779,13.779,0,0,0,.23,3.36c.17.67,1,.77,2.72.77v1.11a33.58,33.58,0,0,0-4.63-.2,29.309,29.309,0,0,0-4.36.3l.33-1.11c1.38,0,2.45-.07,2.59-.74A87.617,87.617,0,0,0,414,98.1c0-3.28,0-7.21-1.31-7.55a4.52,4.52,0,0,0-1.17-.13,7.791,7.791,0,0,0-1.25.1l.27-1.14a35.49,35.49,0,0,0,4.3.2c2.89,0,5.4-.17,6.64-.17,3.9,0,5.94,1.65,5.94,4.93a6.05,6.05,0,0,1-5.33,6.35,81.686,81.686,0,0,0,6.64,8.19c.71.74,1.31.77,2.92.77h.78Zm-13-10.84c4.1,0,5.3-1.84,5.3-4.66,0-3.46-1.84-4.43-4.66-4.43a9.83,9.83,0,0,0-2.69.3,50.188,50.188,0,0,0-.26,5.77c0,1,0,1.95,0,2.79a10.7,10.7,0,0,0,2.32.23Z" transform="translate(48 5678.999)"/>
    <path id="Path_445" data-name="Path 445" d="M445.63,100.15c0-6.54,4.37-11,10.91-11s10.91,4.47,10.91,11-4.23,11-10.91,11S445.63,106.63,445.63,100.15Zm18.8-.33c0-4.37-2.49-9.33-7.89-9.33s-7.89,5-7.89,9.33c0,4.93,3.12,10,7.89,10S464.43,104.75,464.43,99.82Z" transform="translate(48 5678.999)"/>
    <path id="Path_446" data-name="Path 446" d="M501.32,98.2c0-7.31-.3-7.75-2.38-7.75-.51,0-1.35,0-2.25.07l.33-1.14c.61.06,3.6.2,5.41.2,2.25,0,3.72,0,4.6-.1l-.24,1.07-2.22.17c-.63,0-.67.17-.73,1.61-.14,3.06-.2,7.52-.2,8.06-.1,4-.71,6.94-2.76,8.76a8.85,8.85,0,0,1-6.1,2,9.19,9.19,0,0,1-5.91-1.78c-1.78-1.45-2.72-3.69-2.75-7.86V97.59c-.06-6-.27-7.12-1.81-7.12a22.079,22.079,0,0,0-2.38.07l.27-1.18c.26.07,3.25.24,5.06.24,2.25,0,4,0,5.17-.1l-.23,1.07-2.49.17c-.6,0-.67.23-.73,1.51s-.14,3-.17,5.44v2.75c0,3.66.47,6.21,1.95,7.68a6.24,6.24,0,0,0,4.6,1.65,5.57,5.57,0,0,0,4.29-1.58c1.31-1.41,1.75-3.62,1.75-7.38Z" transform="translate(48 5678.999)"/>
    <path id="Path_447" data-name="Path 447" d="M533,110.76c-.67-.07-2.68-.17-5.94-.17-1.57,0-2.72.1-5,.27l.3-1.11c2,0,2.92-.07,3.09-.74.4-1.68.4-4.7.4-10.3,0-8.22-.4-8.26-2.45-8.26a12.623,12.623,0,0,0-1.64.07l.24-1.14c1.27.13,2.88.2,4.63.2,3.45,0,4.9-.17,7-.17,4.57,0,5.61,2.55,5.61,5.37,0,4.9-2.52,8.39-7,8.39a9.25,9.25,0,0,1-1.61-.13l-.87-.94s.8.06,1.74.06c4,0,4.93-3.42,4.93-6,0-2.78-.84-5.54-4.39-5.54A9.59,9.59,0,0,0,529,91c-.2,2.85-.37,7.18-.37,10.84,0,6.38,0,6.38.27,7s.8.74,2.95.74h1.58Z" transform="translate(48 5678.999)"/>
    <path id="Path_448" data-name="Path 448" d="M666.48,64.72c-.1.41-.41,1.84.1,2,1.95.4,4.61-.62,6.55-1.13A13.54,13.54,0,0,0,678.55,62c3-3.38,5.53-10.33,1.54-13.61-1.54-1.64-9.52-1.84-11.77-1.23-.71.21-.41,1.33-.51,1.74C667.4,53.88,667,58.79,666.48,64.72Zm28.16,44.72a64.478,64.478,0,0,1-8.92-9.93,139.3,139.3,0,0,1-8.39-14.94c-.72-1.64-1.44-3.38-2.36-5.12a44.511,44.511,0,0,1-2.35-5.72c-.2-.41-.41-.72-.61-1.23s-6.35.92-6.35,1.33a29.687,29.687,0,0,0-.3,3c-.31,3.59-1.23,7.37-.82,10.95a4.13,4.13,0,0,0,2.35,3.69,1.16,1.16,0,0,1,.61.92c0,.41,0,.92-.51.81s-1.43.11-2,0c-1.85,0-3.69-.2-5.63-.1-3.79.21-7.47-.2-11.66.21l.1-1.13a19.651,19.651,0,0,1,1.84-1.23,5.76,5.76,0,0,0,1.64-2.25c1-1.63,1.74-15.75,2-20.15.72-7.68,1.13-10.34,1.13-13,.2-2.66,1.33-6.44.41-9.1a6.6,6.6,0,0,0-.51-1.44,12.343,12.343,0,0,0-2.26-1.73c0-.31-.1-.93.11-1.23s1.12,0,1.43,0H680.5c3.48.51,6.55.71,10.23,4.19,1.94,2.15,2.66,5.53,2.25,9.52-.41,4.7-4.5,10.43-9.21,12.17-.92.51-.2,1.64,0,2.25a38.743,38.743,0,0,1,1.54,3.59c5.21,9.84,9.82,21.75,17.72,30.17L710.37,99V22.71H634V99l38.17,25.23ZM618.82,3.78V110.56l53.39,35.29,53.39-35.29V3.78Zm100.9,102.85L672.21,138,624.7,106.6v-95h95Z" transform="translate(48 5678.999)" fill="#8a2729"/>
  </g>
</svg>
